<svg width="1360" height="450" viewBox="0 0 1360 450" fill="none" xmlns="http://www.w3.org/2000/svg">
<rect width="1360" height="450" rx="40" fill="#665F55"/>
<path d="M128.018 127.359C127.82 125.499 126.982 124.05 125.504 123.013C124.041 121.976 122.138 121.457 119.794 121.457C118.146 121.457 116.733 121.706 115.554 122.203C114.375 122.7 113.473 123.375 112.848 124.227C112.223 125.08 111.903 126.053 111.889 127.146C111.889 128.055 112.095 128.844 112.507 129.511C112.933 130.179 113.509 130.747 114.233 131.216C114.957 131.67 115.76 132.054 116.641 132.366C117.521 132.679 118.409 132.942 119.304 133.155L123.395 134.178C125.043 134.561 126.626 135.08 128.146 135.733C129.68 136.386 131.051 137.21 132.259 138.205C133.48 139.199 134.446 140.399 135.156 141.805C135.866 143.212 136.222 144.859 136.222 146.749C136.222 149.305 135.568 151.557 134.261 153.503C132.955 155.435 131.065 156.947 128.594 158.041C126.136 159.121 123.161 159.661 119.666 159.661C116.271 159.661 113.324 159.135 110.824 158.084C108.338 157.033 106.392 155.499 104.986 153.482C103.594 151.464 102.841 149.007 102.727 146.109H110.504C110.618 147.629 111.087 148.893 111.911 149.902C112.734 150.911 113.807 151.663 115.128 152.161C116.463 152.658 117.955 152.906 119.602 152.906C121.321 152.906 122.827 152.651 124.119 152.139C125.426 151.614 126.449 150.889 127.188 149.966C127.926 149.028 128.303 147.935 128.317 146.685C128.303 145.548 127.969 144.611 127.315 143.872C126.662 143.119 125.746 142.494 124.567 141.997C123.402 141.486 122.038 141.031 120.476 140.634L115.511 139.355C111.918 138.432 109.077 137.033 106.989 135.158C104.915 133.268 103.878 130.761 103.878 127.636C103.878 125.065 104.574 122.814 105.966 120.882C107.372 118.95 109.283 117.452 111.697 116.386C114.112 115.307 116.847 114.767 119.901 114.767C122.997 114.767 125.71 115.307 128.04 116.386C130.384 117.452 132.223 118.936 133.558 120.839C134.893 122.729 135.582 124.902 135.625 127.359H128.018ZM142.928 159V126.273H150.641V159H142.928ZM146.806 121.628C145.584 121.628 144.533 121.223 143.652 120.413C142.772 119.589 142.331 118.602 142.331 117.452C142.331 116.287 142.772 115.3 143.652 114.49C144.533 113.666 145.584 113.254 146.806 113.254C148.042 113.254 149.093 113.666 149.959 114.49C150.84 115.3 151.28 116.287 151.28 117.452C151.28 118.602 150.84 119.589 149.959 120.413C149.093 121.223 148.042 121.628 146.806 121.628ZM158.572 171.273V126.273H166.158V131.685H166.605C167.003 130.889 167.564 130.044 168.288 129.149C169.013 128.24 169.993 127.466 171.229 126.827C172.464 126.173 174.041 125.847 175.959 125.847C178.487 125.847 180.767 126.493 182.798 127.786C184.844 129.064 186.463 130.96 187.656 133.474C188.864 135.974 189.467 139.043 189.467 142.679C189.467 146.273 188.878 149.327 187.699 151.841C186.52 154.355 184.915 156.273 182.884 157.594C180.852 158.915 178.551 159.575 175.98 159.575C174.105 159.575 172.55 159.263 171.314 158.638C170.078 158.013 169.084 157.26 168.331 156.379C167.592 155.484 167.017 154.639 166.605 153.844H166.286V171.273H158.572ZM166.136 142.636C166.136 144.753 166.435 146.607 167.031 148.197C167.642 149.788 168.516 151.031 169.652 151.926C170.803 152.807 172.195 153.247 173.828 153.247C175.533 153.247 176.96 152.793 178.111 151.884C179.261 150.96 180.128 149.703 180.71 148.112C181.307 146.507 181.605 144.682 181.605 142.636C181.605 140.605 181.314 138.801 180.732 137.224C180.149 135.648 179.283 134.412 178.132 133.517C176.982 132.622 175.547 132.175 173.828 132.175C172.18 132.175 170.781 132.608 169.631 133.474C168.48 134.341 167.607 135.555 167.01 137.118C166.428 138.68 166.136 140.52 166.136 142.636ZM205.128 153.034L204.851 155.378C204.652 157.168 204.297 158.986 203.786 160.832C203.288 162.693 202.763 164.405 202.209 165.967C201.655 167.53 201.207 168.759 200.866 169.653H195.668C195.866 168.787 196.136 167.608 196.477 166.116C196.832 164.625 197.173 162.949 197.5 161.088C197.827 159.227 198.047 157.338 198.161 155.42L198.31 153.034H205.128ZM251.358 127.359C251.159 125.499 250.321 124.05 248.844 123.013C247.381 121.976 245.478 121.457 243.134 121.457C241.486 121.457 240.073 121.706 238.894 122.203C237.715 122.7 236.813 123.375 236.188 124.227C235.563 125.08 235.243 126.053 235.229 127.146C235.229 128.055 235.435 128.844 235.847 129.511C236.273 130.179 236.848 130.747 237.573 131.216C238.297 131.67 239.1 132.054 239.98 132.366C240.861 132.679 241.749 132.942 242.644 133.155L246.735 134.178C248.382 134.561 249.966 135.08 251.486 135.733C253.02 136.386 254.391 137.21 255.598 138.205C256.82 139.199 257.786 140.399 258.496 141.805C259.206 143.212 259.561 144.859 259.561 146.749C259.561 149.305 258.908 151.557 257.601 153.503C256.294 155.435 254.405 156.947 251.934 158.041C249.476 159.121 246.5 159.661 243.006 159.661C239.611 159.661 236.664 159.135 234.164 158.084C231.678 157.033 229.732 155.499 228.326 153.482C226.934 151.464 226.181 149.007 226.067 146.109H233.844C233.958 147.629 234.426 148.893 235.25 149.902C236.074 150.911 237.147 151.663 238.468 152.161C239.803 152.658 241.294 152.906 242.942 152.906C244.661 152.906 246.167 152.651 247.459 152.139C248.766 151.614 249.789 150.889 250.527 149.966C251.266 149.028 251.642 147.935 251.657 146.685C251.642 145.548 251.309 144.611 250.655 143.872C250.002 143.119 249.086 142.494 247.907 141.997C246.742 141.486 245.378 141.031 243.816 140.634L238.851 139.355C235.257 138.432 232.417 137.033 230.328 135.158C228.255 133.268 227.218 130.761 227.218 127.636C227.218 125.065 227.914 122.814 229.306 120.882C230.712 118.95 232.623 117.452 235.037 116.386C237.452 115.307 240.186 114.767 243.24 114.767C246.337 114.767 249.05 115.307 251.38 116.386C253.723 117.452 255.563 118.936 256.898 120.839C258.233 122.729 258.922 124.902 258.965 127.359H251.358ZM275.685 159.661C273.612 159.661 271.744 159.291 270.082 158.553C268.434 157.8 267.127 156.692 266.161 155.229C265.21 153.766 264.734 151.962 264.734 149.817C264.734 147.97 265.075 146.443 265.756 145.236C266.438 144.028 267.369 143.062 268.548 142.338C269.727 141.614 271.055 141.067 272.532 140.697C274.023 140.314 275.565 140.037 277.156 139.866C279.073 139.668 280.629 139.49 281.822 139.334C283.015 139.163 283.881 138.908 284.421 138.567C284.975 138.212 285.252 137.665 285.252 136.926V136.798C285.252 135.193 284.776 133.95 283.825 133.07C282.873 132.189 281.502 131.749 279.712 131.749C277.823 131.749 276.325 132.161 275.217 132.984C274.123 133.808 273.384 134.781 273.001 135.903L265.799 134.881C266.367 132.892 267.305 131.23 268.612 129.895C269.918 128.545 271.516 127.537 273.406 126.869C275.295 126.188 277.383 125.847 279.67 125.847C281.246 125.847 282.816 126.031 284.379 126.401C285.941 126.77 287.369 127.381 288.661 128.233C289.954 129.071 290.991 130.214 291.772 131.663C292.567 133.112 292.965 134.923 292.965 137.097V159H285.55V154.504H285.295C284.826 155.413 284.165 156.266 283.313 157.061C282.475 157.842 281.417 158.474 280.138 158.957C278.874 159.426 277.39 159.661 275.685 159.661ZM277.688 153.993C279.237 153.993 280.579 153.687 281.715 153.077C282.852 152.452 283.725 151.628 284.336 150.605C284.961 149.582 285.273 148.467 285.273 147.26V143.403C285.032 143.602 284.62 143.787 284.038 143.957C283.469 144.128 282.83 144.277 282.12 144.405C281.41 144.533 280.707 144.646 280.011 144.746C279.315 144.845 278.711 144.93 278.2 145.001C277.049 145.158 276.019 145.413 275.11 145.768C274.201 146.124 273.484 146.621 272.958 147.26C272.433 147.885 272.17 148.695 272.17 149.689C272.17 151.109 272.688 152.182 273.725 152.906C274.762 153.631 276.083 153.993 277.688 153.993ZM328.782 126.273L317.127 159H308.604L296.95 126.273H305.174L312.695 150.584H313.036L320.579 126.273H328.782ZM347.282 159.639C344.086 159.639 341.316 158.936 338.972 157.53C336.628 156.124 334.81 154.156 333.517 151.628C332.239 149.099 331.6 146.145 331.6 142.764C331.6 139.384 332.239 136.422 333.517 133.879C334.81 131.337 336.628 129.362 338.972 127.956C341.316 126.55 344.086 125.847 347.282 125.847C350.478 125.847 353.248 126.55 355.591 127.956C357.935 129.362 359.746 131.337 361.025 133.879C362.317 136.422 362.963 139.384 362.963 142.764C362.963 146.145 362.317 149.099 361.025 151.628C359.746 154.156 357.935 156.124 355.591 157.53C353.248 158.936 350.478 159.639 347.282 159.639ZM347.324 153.46C349.057 153.46 350.506 152.984 351.671 152.033C352.836 151.067 353.702 149.774 354.27 148.155C354.853 146.536 355.144 144.732 355.144 142.743C355.144 140.74 354.853 138.929 354.27 137.31C353.702 135.676 352.836 134.376 351.671 133.411C350.506 132.445 349.057 131.962 347.324 131.962C345.549 131.962 344.071 132.445 342.892 133.411C341.728 134.376 340.854 135.676 340.272 137.31C339.703 138.929 339.419 140.74 339.419 142.743C339.419 144.732 339.703 146.536 340.272 148.155C340.854 149.774 341.728 151.067 342.892 152.033C344.071 152.984 345.549 153.46 347.324 153.46ZM369.51 159V126.273H376.989V131.727H377.33C377.926 129.838 378.949 128.382 380.398 127.359C381.861 126.322 383.53 125.804 385.405 125.804C385.831 125.804 386.307 125.825 386.832 125.868C387.372 125.896 387.82 125.946 388.175 126.017V133.112C387.848 132.999 387.33 132.899 386.619 132.814C385.923 132.714 385.249 132.665 384.595 132.665C383.189 132.665 381.925 132.97 380.803 133.581C379.695 134.178 378.821 135.009 378.182 136.074C377.543 137.139 377.223 138.368 377.223 139.76V159H369.51ZM398.604 153.034L398.327 155.378C398.129 157.168 397.773 158.986 397.262 160.832C396.765 162.693 396.239 164.405 395.685 165.967C395.131 167.53 394.684 168.759 394.343 169.653H389.144C389.343 168.787 389.613 167.608 389.954 166.116C390.309 164.625 390.65 162.949 390.977 161.088C391.303 159.227 391.523 157.338 391.637 155.42L391.786 153.034H398.604ZM444.835 127.359C444.636 125.499 443.798 124.05 442.321 123.013C440.858 121.976 438.954 121.457 436.61 121.457C434.963 121.457 433.549 121.706 432.37 122.203C431.191 122.7 430.289 123.375 429.664 124.227C429.039 125.08 428.72 126.053 428.706 127.146C428.706 128.055 428.912 128.844 429.324 129.511C429.75 130.179 430.325 130.747 431.049 131.216C431.774 131.67 432.576 132.054 433.457 132.366C434.338 132.679 435.225 132.942 436.12 133.155L440.211 134.178C441.859 134.561 443.443 135.08 444.963 135.733C446.497 136.386 447.868 137.21 449.075 138.205C450.297 139.199 451.262 140.399 451.973 141.805C452.683 143.212 453.038 144.859 453.038 146.749C453.038 149.305 452.385 151.557 451.078 153.503C449.771 155.435 447.882 156.947 445.41 158.041C442.953 159.121 439.977 159.661 436.483 159.661C433.088 159.661 430.14 159.135 427.64 158.084C425.154 157.033 423.208 155.499 421.802 153.482C420.41 151.464 419.657 149.007 419.544 146.109H427.321C427.434 147.629 427.903 148.893 428.727 149.902C429.551 150.911 430.623 151.663 431.944 152.161C433.279 152.658 434.771 152.906 436.419 152.906C438.137 152.906 439.643 152.651 440.936 152.139C442.243 151.614 443.265 150.889 444.004 149.966C444.743 149.028 445.119 147.935 445.133 146.685C445.119 145.548 444.785 144.611 444.132 143.872C443.478 143.119 442.562 142.494 441.383 141.997C440.218 141.486 438.855 141.031 437.292 140.634L432.328 139.355C428.734 138.432 425.893 137.033 423.805 135.158C421.731 133.268 420.694 130.761 420.694 127.636C420.694 125.065 421.39 122.814 422.782 120.882C424.189 118.95 426.099 117.452 428.514 116.386C430.929 115.307 433.663 114.767 436.717 114.767C439.814 114.767 442.527 115.307 444.856 116.386C447.2 117.452 449.039 118.936 450.375 120.839C451.71 122.729 452.399 124.902 452.441 127.359H444.835ZM459.744 159V126.273H467.116V131.834H467.5C468.182 129.959 469.311 128.496 470.888 127.445C472.464 126.379 474.347 125.847 476.534 125.847C478.75 125.847 480.618 126.386 482.138 127.466C483.672 128.531 484.751 129.987 485.376 131.834H485.717C486.442 130.016 487.663 128.567 489.382 127.487C491.115 126.393 493.168 125.847 495.54 125.847C498.551 125.847 501.009 126.798 502.912 128.702C504.815 130.605 505.767 133.382 505.767 137.033V159H498.033V138.226C498.033 136.195 497.493 134.71 496.413 133.773C495.334 132.821 494.013 132.345 492.45 132.345C490.589 132.345 489.134 132.928 488.082 134.092C487.045 135.243 486.527 136.741 486.527 138.588V159H478.963V137.906C478.963 136.216 478.452 134.866 477.429 133.858C476.42 132.849 475.099 132.345 473.466 132.345C472.358 132.345 471.349 132.629 470.44 133.197C469.531 133.751 468.807 134.54 468.267 135.562C467.727 136.571 467.457 137.75 467.457 139.099V159H459.744ZM513.592 159V126.273H521.305V159H513.592ZM517.47 121.628C516.248 121.628 515.197 121.223 514.316 120.413C513.436 119.589 512.995 118.602 512.995 117.452C512.995 116.287 513.436 115.3 514.316 114.49C515.197 113.666 516.248 113.254 517.47 113.254C518.706 113.254 519.757 113.666 520.623 114.49C521.504 115.3 521.944 116.287 521.944 117.452C521.944 118.602 521.504 119.589 520.623 120.413C519.757 121.223 518.706 121.628 517.47 121.628ZM536.95 115.364V159H529.237V115.364H536.95ZM559.37 159.639C556.088 159.639 553.255 158.957 550.868 157.594C548.496 156.216 546.671 154.27 545.392 151.756C544.114 149.227 543.475 146.251 543.475 142.828C543.475 139.462 544.114 136.507 545.392 133.964C546.685 131.408 548.489 129.419 550.804 127.999C553.12 126.564 555.84 125.847 558.965 125.847C560.982 125.847 562.885 126.173 564.675 126.827C566.479 127.466 568.07 128.46 569.448 129.81C570.84 131.159 571.934 132.878 572.729 134.966C573.525 137.04 573.922 139.511 573.922 142.381V144.746H547.097V139.547H566.529C566.515 138.07 566.195 136.756 565.57 135.605C564.945 134.44 564.071 133.524 562.949 132.857C561.841 132.189 560.549 131.855 559.071 131.855C557.495 131.855 556.11 132.239 554.917 133.006C553.723 133.759 552.793 134.753 552.125 135.989C551.472 137.21 551.138 138.553 551.124 140.016V144.554C551.124 146.457 551.472 148.091 552.168 149.455C552.864 150.804 553.837 151.841 555.087 152.565C556.337 153.276 557.8 153.631 559.476 153.631C560.598 153.631 561.614 153.474 562.523 153.162C563.432 152.835 564.221 152.359 564.888 151.734C565.556 151.109 566.06 150.335 566.401 149.412L573.603 150.222C573.148 152.125 572.282 153.787 571.003 155.207C569.739 156.614 568.12 157.707 566.145 158.489C564.171 159.256 561.912 159.639 559.37 159.639ZM585.199 159.469C583.906 159.469 582.798 159.014 581.875 158.105C580.952 157.196 580.497 156.088 580.511 154.781C580.497 153.503 580.952 152.409 581.875 151.5C582.798 150.591 583.906 150.136 585.199 150.136C586.449 150.136 587.536 150.591 588.459 151.5C589.396 152.409 589.872 153.503 589.886 154.781C589.872 155.648 589.645 156.436 589.205 157.146C588.778 157.857 588.21 158.425 587.5 158.851C586.804 159.263 586.037 159.469 585.199 159.469Z" fill="#E1D4C9"/>
<path d="M116.726 190.364L109.482 234H101.577L108.821 190.364H116.726ZM139.498 201.273L138.496 207.239H119.703L120.684 201.273H139.498ZM126.607 193.432H134.32L129.206 224.156C129.05 225.193 129.078 225.989 129.292 226.543C129.519 227.082 129.881 227.452 130.378 227.651C130.89 227.849 131.465 227.949 132.104 227.949C132.573 227.949 133.013 227.913 133.425 227.842C133.837 227.757 134.164 227.693 134.405 227.651L134.746 233.68C134.277 233.822 133.645 233.979 132.85 234.149C132.069 234.32 131.131 234.419 130.037 234.447C128.077 234.49 126.373 234.192 124.924 233.553C123.489 232.899 122.438 231.898 121.77 230.548C121.117 229.185 120.968 227.48 121.323 225.435L126.607 193.432ZM155.803 190.364L155.099 194.71C154.901 195.96 154.446 197.26 153.736 198.609C153.026 199.945 152.159 201.223 151.136 202.445C150.114 203.652 149.013 204.689 147.834 205.555L144.595 203.233C145.561 202.054 146.449 200.783 147.259 199.419C148.068 198.041 148.622 196.486 148.92 194.753L149.666 190.364H155.803ZM180.423 209.923L173.327 210.69C173.256 209.966 173.036 209.291 172.667 208.666C172.298 208.041 171.744 207.544 171.005 207.175C170.281 206.791 169.343 206.599 168.192 206.599C166.516 206.599 165.046 206.976 163.782 207.729C162.518 208.482 161.8 209.447 161.63 210.626C161.474 211.507 161.687 212.224 162.269 212.778C162.852 213.332 163.931 213.801 165.508 214.185L170.92 215.378C173.903 216.045 176.048 217.125 177.354 218.616C178.675 220.108 179.137 222.061 178.739 224.476C178.398 226.493 177.518 228.268 176.097 229.803C174.677 231.322 172.859 232.509 170.643 233.361C168.441 234.213 165.998 234.639 163.313 234.639C159.237 234.639 156.097 233.794 153.896 232.104C151.708 230.399 150.621 228.055 150.636 225.072L158.221 224.348C158.306 225.825 158.825 226.94 159.776 227.693C160.728 228.432 162.049 228.808 163.739 228.822C165.643 228.837 167.248 228.439 168.555 227.629C169.876 226.805 170.621 225.804 170.792 224.625C170.934 223.744 170.714 223.027 170.131 222.473C169.563 221.919 168.548 221.479 167.085 221.152L161.715 219.98C158.675 219.312 156.509 218.183 155.217 216.592C153.938 214.987 153.505 212.963 153.917 210.52C154.258 208.531 155.089 206.82 156.41 205.385C157.745 203.936 159.457 202.821 161.545 202.04C163.633 201.244 165.969 200.847 168.555 200.847C172.447 200.847 175.38 201.663 177.354 203.297C179.329 204.93 180.352 207.139 180.423 209.923ZM212.575 234.639C209.308 234.639 206.623 233.922 204.521 232.487C202.418 231.053 200.948 229.071 200.11 226.543C199.286 224 199.151 221.074 199.705 217.764C200.245 214.44 201.36 211.507 203.05 208.964C204.755 206.408 206.9 204.419 209.485 202.999C212.07 201.564 214.961 200.847 218.157 200.847C220.813 200.847 223.079 201.337 224.954 202.317C226.843 203.283 228.249 204.653 229.173 206.429C230.11 208.19 230.472 210.25 230.259 212.608H222.866C222.837 211.031 222.347 209.717 221.396 208.666C220.444 207.601 219.052 207.068 217.219 207.068C215.629 207.068 214.165 207.494 212.83 208.347C211.495 209.185 210.366 210.392 209.442 211.969C208.519 213.545 207.88 215.435 207.525 217.636C207.156 219.866 207.163 221.784 207.546 223.389C207.944 224.98 208.661 226.209 209.698 227.075C210.749 227.928 212.077 228.354 213.683 228.354C214.819 228.354 215.877 228.141 216.857 227.714C217.837 227.274 218.697 226.642 219.435 225.818C220.188 224.994 220.778 223.993 221.204 222.814H228.576C227.994 225.129 226.957 227.182 225.465 228.972C223.988 230.747 222.156 232.139 219.968 233.148C217.781 234.142 215.316 234.639 212.575 234.639ZM247.374 234.639C244.15 234.639 241.465 233.929 239.32 232.509C237.189 231.088 235.691 229.092 234.824 226.521C233.958 223.95 233.801 220.967 234.355 217.572C234.909 214.22 236.017 211.287 237.679 208.773C239.355 206.259 241.465 204.312 244.007 202.935C246.564 201.543 249.426 200.847 252.594 200.847C255.819 200.847 258.496 201.564 260.627 202.999C262.757 204.419 264.256 206.415 265.123 208.986C266.003 211.557 266.167 214.554 265.613 217.977C265.073 221.315 263.958 224.234 262.267 226.734C260.591 229.234 258.482 231.18 255.939 232.572C253.397 233.95 250.542 234.639 247.374 234.639ZM248.013 228.46C249.803 228.46 251.373 227.977 252.722 227.011C254.086 226.031 255.201 224.717 256.067 223.07C256.948 221.408 257.559 219.561 257.9 217.53C258.212 215.57 258.219 213.794 257.921 212.203C257.623 210.598 256.983 209.327 256.003 208.389C255.037 207.437 253.695 206.962 251.976 206.962C250.186 206.962 248.603 207.459 247.225 208.453C245.861 209.433 244.746 210.754 243.88 212.416C243.013 214.064 242.417 215.903 242.09 217.935C241.763 219.895 241.749 221.67 242.047 223.261C242.346 224.852 242.985 226.116 243.965 227.054C244.945 227.991 246.294 228.46 248.013 228.46ZM291.57 201.273L290.568 207.239H271.222L272.223 201.273H291.57ZM271.584 234L277.571 198.183C277.912 195.982 278.658 194.149 279.808 192.686C280.973 191.223 282.386 190.129 284.048 189.405C285.724 188.68 287.507 188.318 289.396 188.318C290.746 188.318 291.918 188.425 292.912 188.638C293.906 188.851 294.631 189.043 295.085 189.213L292.592 195.179C292.266 195.08 291.868 194.98 291.399 194.881C290.945 194.767 290.412 194.71 289.801 194.71C288.366 194.71 287.294 195.058 286.584 195.754C285.874 196.436 285.405 197.416 285.178 198.695L279.318 234H271.584ZM314.245 201.273L313.244 207.239H293.897L294.899 201.273H314.245ZM294.26 234L300.247 198.183C300.588 195.982 301.333 194.149 302.484 192.686C303.649 191.223 305.062 190.129 306.724 189.405C308.4 188.68 310.183 188.318 312.072 188.318C313.422 188.318 314.593 188.425 315.588 188.638C316.582 188.851 317.306 189.043 317.761 189.213L315.268 195.179C314.941 195.08 314.544 194.98 314.075 194.881C313.62 194.767 313.088 194.71 312.477 194.71C311.042 194.71 309.97 195.058 309.26 195.754C308.549 196.436 308.081 197.416 307.853 198.695L301.994 234H294.26ZM328.042 234.639C324.76 234.639 322.047 233.957 319.902 232.594C317.757 231.216 316.252 229.27 315.385 226.756C314.533 224.227 314.391 221.251 314.959 217.828C315.513 214.462 316.642 211.507 318.347 208.964C320.051 206.408 322.182 204.419 324.739 202.999C327.31 201.564 330.151 200.847 333.262 200.847C335.279 200.847 337.132 201.173 338.823 201.827C340.513 202.466 341.941 203.46 343.105 204.81C344.27 206.159 345.073 207.878 345.513 209.966C345.953 212.04 345.932 214.511 345.449 217.381L345.087 219.746H318.24L319.071 214.547H338.503C338.759 213.07 338.674 211.756 338.248 210.605C337.821 209.44 337.111 208.524 336.117 207.857C335.123 207.189 333.88 206.855 332.388 206.855C330.868 206.855 329.448 207.246 328.127 208.027C326.82 208.794 325.719 209.788 324.824 211.01C323.929 212.232 323.361 213.517 323.12 214.866L322.246 219.852C321.934 221.898 322.005 223.567 322.459 224.859C322.914 226.152 323.709 227.104 324.846 227.714C325.982 228.325 327.417 228.631 329.15 228.631C330.286 228.631 331.337 228.474 332.303 228.162C333.269 227.849 334.128 227.381 334.881 226.756C335.648 226.116 336.287 225.335 336.799 224.412L343.851 225.222C343.07 227.125 341.926 228.787 340.421 230.207C338.915 231.614 337.111 232.707 335.009 233.489C332.921 234.256 330.598 234.639 328.042 234.639ZM363.667 234.639C360.385 234.639 357.672 233.957 355.527 232.594C353.382 231.216 351.877 229.27 351.01 226.756C350.158 224.227 350.016 221.251 350.584 217.828C351.138 214.462 352.267 211.507 353.972 208.964C355.676 206.408 357.807 204.419 360.364 202.999C362.935 201.564 365.776 200.847 368.887 200.847C370.904 200.847 372.757 201.173 374.448 201.827C376.138 202.466 377.566 203.46 378.73 204.81C379.895 206.159 380.698 207.878 381.138 209.966C381.578 212.04 381.557 214.511 381.074 217.381L380.712 219.746H353.865L354.696 214.547H374.128C374.384 213.07 374.299 211.756 373.873 210.605C373.446 209.44 372.736 208.524 371.742 207.857C370.748 207.189 369.505 206.855 368.013 206.855C366.493 206.855 365.073 207.246 363.752 208.027C362.445 208.794 361.344 209.788 360.449 211.01C359.554 212.232 358.986 213.517 358.745 214.866L357.871 219.852C357.559 221.898 357.63 223.567 358.084 224.859C358.539 226.152 359.334 227.104 360.471 227.714C361.607 228.325 363.042 228.631 364.775 228.631C365.911 228.631 366.962 228.474 367.928 228.162C368.894 227.849 369.753 227.381 370.506 226.756C371.273 226.116 371.912 225.335 372.424 224.412L379.476 225.222C378.695 227.125 377.551 228.787 376.046 230.207C374.54 231.614 372.736 232.707 370.634 233.489C368.546 234.256 366.223 234.639 363.667 234.639ZM421.568 201.273L420.566 207.239H401.774L402.754 201.273H421.568ZM408.677 193.432H416.39L411.277 224.156C411.12 225.193 411.149 225.989 411.362 226.543C411.589 227.082 411.951 227.452 412.449 227.651C412.96 227.849 413.535 227.949 414.174 227.949C414.643 227.949 415.083 227.913 415.495 227.842C415.907 227.757 416.234 227.693 416.475 227.651L416.816 233.68C416.348 233.822 415.716 233.979 414.92 234.149C414.139 234.32 413.201 234.419 412.108 234.447C410.147 234.49 408.443 234.192 406.994 233.553C405.559 232.899 404.508 231.898 403.841 230.548C403.187 229.185 403.038 227.48 403.393 225.435L408.677 193.432ZM422.564 234L428.018 201.273H435.732L430.277 234H422.564ZM433.004 196.585C431.768 196.585 430.746 196.173 429.936 195.349C429.126 194.526 428.771 193.538 428.871 192.388C428.97 191.237 429.489 190.25 430.426 189.426C431.378 188.602 432.464 188.19 433.686 188.19C434.922 188.19 435.938 188.602 436.733 189.426C437.543 190.25 437.898 191.237 437.798 192.388C437.713 193.538 437.195 194.526 436.243 195.349C435.305 196.173 434.226 196.585 433.004 196.585ZM438.23 234L443.684 201.273H451.078L450.14 206.834H450.545C451.539 204.959 452.91 203.496 454.657 202.445C456.404 201.379 458.372 200.847 460.559 200.847C462.761 200.847 464.537 201.386 465.886 202.466C467.25 203.531 468.088 204.987 468.4 206.834H468.741C469.764 205.001 471.227 203.545 473.13 202.466C475.048 201.386 477.2 200.847 479.586 200.847C482.569 200.847 484.856 201.798 486.447 203.702C488.038 205.605 488.528 208.382 487.917 212.033L484.252 234H476.539L480.034 213.226C480.346 211.195 480.034 209.71 479.096 208.773C478.173 207.821 476.93 207.345 475.368 207.345C473.507 207.345 471.958 207.92 470.723 209.071C469.501 210.222 468.748 211.727 468.464 213.588L465.034 234H457.47L461.007 212.906C461.262 211.216 460.964 209.866 460.112 208.858C459.274 207.849 458.038 207.345 456.404 207.345C455.297 207.345 454.238 207.629 453.23 208.197C452.221 208.766 451.362 209.561 450.652 210.584C449.956 211.592 449.501 212.764 449.288 214.099L445.964 234H438.23ZM506.46 234.639C503.178 234.639 500.465 233.957 498.32 232.594C496.175 231.216 494.67 229.27 493.803 226.756C492.951 224.227 492.809 221.251 493.377 217.828C493.931 214.462 495.06 211.507 496.765 208.964C498.469 206.408 500.6 204.419 503.157 202.999C505.728 201.564 508.569 200.847 511.68 200.847C513.697 200.847 515.55 201.173 517.241 201.827C518.931 202.466 520.359 203.46 521.523 204.81C522.688 206.159 523.491 207.878 523.931 209.966C524.371 212.04 524.35 214.511 523.867 217.381L523.505 219.746H496.658L497.489 214.547H516.921C517.177 213.07 517.092 211.756 516.665 210.605C516.239 209.44 515.529 208.524 514.535 207.857C513.54 207.189 512.298 206.855 510.806 206.855C509.286 206.855 507.866 207.246 506.545 208.027C505.238 208.794 504.137 209.788 503.242 211.01C502.347 212.232 501.779 213.517 501.538 214.866L500.664 219.852C500.352 221.898 500.423 223.567 500.877 224.859C501.332 226.152 502.127 227.104 503.263 227.714C504.4 228.325 505.835 228.631 507.567 228.631C508.704 228.631 509.755 228.474 510.721 228.162C511.687 227.849 512.546 227.381 513.299 226.756C514.066 226.116 514.705 225.335 515.217 224.412L522.269 225.222C521.488 227.125 520.344 228.787 518.839 230.207C517.333 231.614 515.529 232.707 513.427 233.489C511.339 234.256 509.016 234.639 506.46 234.639ZM544.322 190.364L538.526 221.173H531.708L536.119 190.364H544.322ZM533.477 234.469C532.17 234.469 531.09 234.014 530.238 233.105C529.386 232.196 528.988 231.088 529.045 229.781C529.102 228.503 529.62 227.416 530.6 226.521C531.58 225.626 532.71 225.179 533.988 225.179C535.252 225.179 536.325 225.634 537.205 226.543C538.1 227.452 538.505 228.531 538.42 229.781C538.363 230.662 538.093 231.457 537.61 232.168C537.141 232.878 536.545 233.439 535.82 233.851C535.096 234.263 534.315 234.469 533.477 234.469Z" fill="#B0907A"/>
<rect x="100.5" y="290.5" width="59" height="59" rx="29.5" stroke="#C1B6AD"/>
<path d="M141 311.01C141 311.01 138.982 312.202 137.86 312.54C137.258 311.848 136.457 311.357 135.567 311.134C134.677 310.911 133.739 310.967 132.882 311.295C132.025 311.622 131.288 312.204 130.773 312.964C130.258 313.723 129.988 314.622 130 315.54V316.54C128.243 316.586 126.501 316.196 124.931 315.406C123.361 314.615 122.01 313.449 121 312.01C121 312.01 117 321.01 126 325.01C123.941 326.408 121.487 327.109 119 327.01C128 332.01 139 327.01 139 315.51C138.999 315.232 138.972 314.954 138.92 314.68C139.941 313.674 141 311.01 141 311.01Z" stroke="#E1D4C9" stroke-linecap="round" stroke-linejoin="round"/>
<rect x="172.5" y="290.5" width="59" height="59" rx="29.5" stroke="#C1B6AD"/>
<path d="M202 324C204.209 324 206 322.209 206 320C206 317.791 204.209 316 202 316C199.791 316 198 317.791 198 320C198 322.209 199.791 324 202 324Z" stroke="#E1D4C9" stroke-linecap="round" stroke-linejoin="round"/>
<path d="M193 324V316C193 313.239 195.239 311 198 311H206C208.761 311 211 313.239 211 316V324C211 326.761 208.761 329 206 329H198C195.239 329 193 326.761 193 324Z" stroke="#E1D4C9"/>
<path d="M207.5 314.51L207.51 314.499" stroke="#E1D4C9" stroke-linecap="round" stroke-linejoin="round"/>
<rect x="244.5" y="290.5" width="59" height="59" rx="29.5" stroke="#C1B6AD"/>
<path d="M279 310H276C274.674 310 273.402 310.527 272.464 311.464C271.527 312.402 271 313.674 271 315V318H268V322H271V330H275V322H278L279 318H275V315C275 314.735 275.105 314.48 275.293 314.293C275.48 314.105 275.735 314 276 314H279V310Z" stroke="#E1D4C9" stroke-linecap="round" stroke-linejoin="round"/>
<path d="M746.662 144.435H743.474C743.384 143.912 743.216 143.449 742.972 143.045C742.727 142.636 742.423 142.29 742.06 142.006C741.696 141.722 741.281 141.509 740.815 141.366C740.355 141.219 739.858 141.145 739.324 141.145C738.375 141.145 737.534 141.384 736.801 141.861C736.068 142.332 735.494 143.026 735.08 143.94C734.665 144.849 734.457 145.96 734.457 147.273C734.457 148.608 734.665 149.733 735.08 150.648C735.5 151.557 736.074 152.244 736.801 152.71C737.534 153.17 738.372 153.401 739.315 153.401C739.838 153.401 740.327 153.332 740.781 153.196C741.241 153.054 741.653 152.847 742.017 152.574C742.386 152.301 742.696 151.966 742.946 151.568C743.202 151.17 743.378 150.716 743.474 150.205L746.662 150.222C746.543 151.051 746.284 151.83 745.886 152.557C745.494 153.284 744.98 153.926 744.344 154.483C743.707 155.034 742.963 155.466 742.111 155.778C741.259 156.085 740.313 156.239 739.273 156.239C737.739 156.239 736.369 155.884 735.165 155.173C733.96 154.463 733.011 153.438 732.318 152.097C731.625 150.756 731.278 149.148 731.278 147.273C731.278 145.392 731.628 143.784 732.327 142.449C733.026 141.108 733.977 140.082 735.182 139.372C736.386 138.662 737.75 138.307 739.273 138.307C740.244 138.307 741.148 138.443 741.983 138.716C742.818 138.989 743.563 139.389 744.216 139.918C744.869 140.44 745.406 141.082 745.827 141.844C746.253 142.599 746.531 143.463 746.662 144.435ZM755.131 156.256C753.853 156.256 752.745 155.974 751.808 155.412C750.87 154.849 750.143 154.062 749.626 153.051C749.114 152.04 748.859 150.858 748.859 149.506C748.859 148.153 749.114 146.969 749.626 145.952C750.143 144.935 750.87 144.145 751.808 143.582C752.745 143.02 753.853 142.739 755.131 142.739C756.41 142.739 757.518 143.02 758.455 143.582C759.393 144.145 760.117 144.935 760.629 145.952C761.146 146.969 761.404 148.153 761.404 149.506C761.404 150.858 761.146 152.04 760.629 153.051C760.117 154.062 759.393 154.849 758.455 155.412C757.518 155.974 756.41 156.256 755.131 156.256ZM755.148 153.784C755.842 153.784 756.421 153.594 756.887 153.213C757.353 152.827 757.7 152.31 757.927 151.662C758.16 151.014 758.276 150.293 758.276 149.497C758.276 148.696 758.16 147.972 757.927 147.324C757.7 146.67 757.353 146.151 756.887 145.764C756.421 145.378 755.842 145.185 755.148 145.185C754.438 145.185 753.847 145.378 753.376 145.764C752.91 146.151 752.56 146.67 752.327 147.324C752.1 147.972 751.987 148.696 751.987 149.497C751.987 150.293 752.1 151.014 752.327 151.662C752.56 152.31 752.91 152.827 753.376 153.213C753.847 153.594 754.438 153.784 755.148 153.784ZM767.108 148.33V156H764.023V142.909H766.972V145.134H767.125C767.426 144.401 767.906 143.818 768.565 143.386C769.23 142.955 770.051 142.739 771.028 142.739C771.932 142.739 772.719 142.932 773.389 143.318C774.065 143.705 774.588 144.264 774.957 144.997C775.332 145.73 775.517 146.619 775.511 147.665V156H772.426V148.142C772.426 147.267 772.199 146.582 771.744 146.088C771.295 145.594 770.673 145.347 769.878 145.347C769.338 145.347 768.858 145.466 768.438 145.705C768.023 145.937 767.696 146.276 767.457 146.719C767.224 147.162 767.108 147.699 767.108 148.33ZM785.185 142.909V145.295H777.659V142.909H785.185ZM779.517 139.773H782.602V152.062C782.602 152.477 782.665 152.795 782.79 153.017C782.92 153.233 783.091 153.381 783.301 153.46C783.511 153.54 783.744 153.58 784 153.58C784.193 153.58 784.369 153.565 784.528 153.537C784.693 153.509 784.818 153.483 784.903 153.46L785.423 155.872C785.259 155.929 785.023 155.991 784.716 156.06C784.415 156.128 784.045 156.168 783.608 156.179C782.835 156.202 782.139 156.085 781.52 155.83C780.901 155.568 780.409 155.165 780.045 154.619C779.688 154.074 779.511 153.392 779.517 152.574V139.773ZM791.532 156.264C790.702 156.264 789.955 156.116 789.29 155.821C788.631 155.52 788.109 155.077 787.722 154.491C787.342 153.906 787.151 153.185 787.151 152.327C787.151 151.588 787.288 150.977 787.56 150.494C787.833 150.011 788.205 149.625 788.677 149.335C789.148 149.045 789.68 148.827 790.271 148.679C790.867 148.526 791.484 148.415 792.12 148.347C792.887 148.267 793.509 148.196 793.987 148.134C794.464 148.065 794.81 147.963 795.026 147.827C795.248 147.685 795.359 147.466 795.359 147.17V147.119C795.359 146.477 795.168 145.98 794.788 145.628C794.407 145.276 793.859 145.099 793.143 145.099C792.387 145.099 791.788 145.264 791.344 145.594C790.907 145.923 790.612 146.312 790.458 146.761L787.577 146.352C787.805 145.557 788.18 144.892 788.702 144.358C789.225 143.818 789.864 143.415 790.62 143.148C791.376 142.875 792.211 142.739 793.126 142.739C793.756 142.739 794.384 142.812 795.009 142.96C795.634 143.108 796.205 143.352 796.722 143.693C797.239 144.028 797.654 144.486 797.967 145.065C798.285 145.645 798.444 146.369 798.444 147.239V156H795.478V154.202H795.376C795.188 154.565 794.924 154.906 794.583 155.224C794.248 155.537 793.825 155.79 793.313 155.983C792.808 156.17 792.214 156.264 791.532 156.264ZM792.333 153.997C792.952 153.997 793.489 153.875 793.944 153.631C794.398 153.381 794.748 153.051 794.992 152.642C795.242 152.233 795.367 151.787 795.367 151.304V149.761C795.271 149.841 795.106 149.915 794.873 149.983C794.646 150.051 794.39 150.111 794.106 150.162C793.822 150.213 793.54 150.259 793.262 150.298C792.984 150.338 792.742 150.372 792.538 150.401C792.077 150.463 791.665 150.565 791.302 150.707C790.938 150.849 790.651 151.048 790.441 151.304C790.231 151.554 790.126 151.878 790.126 152.276C790.126 152.844 790.333 153.273 790.748 153.562C791.163 153.852 791.691 153.997 792.333 153.997ZM807.256 156.256C805.95 156.256 804.827 155.969 803.89 155.395C802.958 154.821 802.239 154.028 801.734 153.017C801.234 152 800.984 150.83 800.984 149.506C800.984 148.176 801.239 147.003 801.751 145.986C802.262 144.963 802.984 144.168 803.915 143.599C804.853 143.026 805.961 142.739 807.239 142.739C808.302 142.739 809.242 142.935 810.06 143.327C810.884 143.713 811.54 144.261 812.029 144.972C812.518 145.676 812.796 146.5 812.864 147.443H809.915C809.796 146.812 809.512 146.287 809.063 145.866C808.62 145.44 808.026 145.227 807.282 145.227C806.651 145.227 806.097 145.398 805.62 145.739C805.143 146.074 804.771 146.557 804.504 147.188C804.242 147.818 804.112 148.574 804.112 149.455C804.112 150.347 804.242 151.114 804.504 151.756C804.765 152.392 805.131 152.884 805.603 153.23C806.08 153.571 806.64 153.741 807.282 153.741C807.737 153.741 808.143 153.656 808.501 153.486C808.864 153.31 809.168 153.057 809.413 152.727C809.657 152.398 809.825 151.997 809.915 151.526H812.864C812.79 152.452 812.518 153.273 812.046 153.989C811.575 154.699 810.933 155.256 810.12 155.659C809.308 156.057 808.353 156.256 807.256 156.256ZM821.935 142.909V145.295H814.409V142.909H821.935ZM816.267 139.773H819.352V152.062C819.352 152.477 819.415 152.795 819.54 153.017C819.67 153.233 819.841 153.381 820.051 153.46C820.261 153.54 820.494 153.58 820.75 153.58C820.943 153.58 821.119 153.565 821.278 153.537C821.443 153.509 821.568 153.483 821.653 153.46L822.173 155.872C822.009 155.929 821.773 155.991 821.466 156.06C821.165 156.128 820.795 156.168 820.358 156.179C819.585 156.202 818.889 156.085 818.27 155.83C817.651 155.568 817.159 155.165 816.795 154.619C816.438 154.074 816.261 153.392 816.267 152.574V139.773ZM838.812 150.494V142.909H841.897V156H838.906V153.673H838.769C838.474 154.406 837.988 155.006 837.312 155.472C836.641 155.937 835.815 156.17 834.832 156.17C833.974 156.17 833.215 155.98 832.556 155.599C831.903 155.213 831.391 154.653 831.022 153.92C830.653 153.182 830.468 152.29 830.468 151.244V142.909H833.553V150.767C833.553 151.597 833.781 152.256 834.235 152.744C834.69 153.233 835.286 153.477 836.025 153.477C836.479 153.477 836.92 153.366 837.346 153.145C837.772 152.923 838.121 152.594 838.394 152.156C838.673 151.713 838.812 151.159 838.812 150.494ZM855.416 146.369L852.604 146.676C852.524 146.392 852.385 146.125 852.186 145.875C851.993 145.625 851.732 145.423 851.402 145.27C851.072 145.116 850.669 145.04 850.192 145.04C849.55 145.04 849.01 145.179 848.572 145.457C848.141 145.736 847.928 146.097 847.933 146.54C847.928 146.92 848.067 147.23 848.351 147.469C848.641 147.707 849.118 147.903 849.783 148.057L852.016 148.534C853.254 148.801 854.175 149.224 854.777 149.804C855.385 150.384 855.692 151.142 855.697 152.08C855.692 152.903 855.45 153.631 854.973 154.261C854.501 154.886 853.845 155.375 853.004 155.727C852.163 156.08 851.197 156.256 850.107 156.256C848.504 156.256 847.214 155.92 846.237 155.25C845.26 154.574 844.678 153.634 844.49 152.429L847.499 152.139C847.635 152.73 847.925 153.176 848.368 153.477C848.811 153.778 849.388 153.929 850.098 153.929C850.831 153.929 851.419 153.778 851.862 153.477C852.311 153.176 852.536 152.804 852.536 152.361C852.536 151.986 852.391 151.676 852.101 151.432C851.817 151.187 851.374 151 850.771 150.869L848.538 150.401C847.283 150.139 846.354 149.699 845.751 149.08C845.149 148.455 844.851 147.665 844.857 146.71C844.851 145.903 845.07 145.205 845.513 144.614C845.962 144.017 846.584 143.557 847.379 143.233C848.18 142.903 849.104 142.739 850.149 142.739C851.683 142.739 852.891 143.065 853.771 143.719C854.658 144.372 855.206 145.256 855.416 146.369Z" fill="#E1D4C9"/>
<path d="M746.666 210.333C746.666 214.015 740 220.333 740 220.333C740 220.333 733.333 214.015 733.333 210.333C733.333 206.651 736.318 203.667 740 203.667C743.682 203.667 746.666 206.651 746.666 210.333Z" stroke="#E1D4C9" stroke-width="1.5"/>
<path d="M740 211.167C740.461 211.167 740.834 210.794 740.834 210.333C740.834 209.873 740.461 209.5 740 209.5C739.54 209.5 739.167 209.873 739.167 210.333C739.167 210.794 739.54 211.167 740 211.167Z" fill="#E1D4C9" stroke="#E1D4C9" stroke-width="1.5" stroke-linecap="round" stroke-linejoin="round"/>
<path d="M763.17 220.159C762.326 220.159 761.576 220.017 760.92 219.733C760.269 219.449 759.758 219.061 759.386 218.568C759.019 218.072 758.837 217.509 758.841 216.881C758.837 216.392 758.943 215.943 759.159 215.534C759.375 215.125 759.667 214.784 760.034 214.511C760.405 214.235 760.818 214.059 761.273 213.983V213.903C760.674 213.771 760.189 213.466 759.818 212.989C759.451 212.508 759.269 211.953 759.273 211.324C759.269 210.725 759.436 210.191 759.773 209.722C760.11 209.252 760.572 208.883 761.159 208.614C761.746 208.341 762.417 208.205 763.17 208.205C763.917 208.205 764.581 208.341 765.165 208.614C765.752 208.883 766.214 209.252 766.551 209.722C766.892 210.191 767.062 210.725 767.062 211.324C767.062 211.953 766.875 212.508 766.5 212.989C766.129 213.466 765.65 213.771 765.062 213.903V213.983C765.517 214.059 765.926 214.235 766.29 214.511C766.657 214.784 766.949 215.125 767.165 215.534C767.384 215.943 767.494 216.392 767.494 216.881C767.494 217.509 767.309 218.072 766.938 218.568C766.566 219.061 766.055 219.449 765.403 219.733C764.756 220.017 764.011 220.159 763.17 220.159ZM763.17 218.534C763.606 218.534 763.985 218.46 764.307 218.312C764.629 218.161 764.879 217.949 765.057 217.676C765.235 217.403 765.326 217.089 765.33 216.733C765.326 216.362 765.229 216.034 765.04 215.75C764.854 215.462 764.598 215.237 764.273 215.074C763.951 214.911 763.583 214.83 763.17 214.83C762.754 214.83 762.383 214.911 762.057 215.074C761.731 215.237 761.473 215.462 761.284 215.75C761.098 216.034 761.008 216.362 761.011 216.733C761.008 217.089 761.095 217.403 761.273 217.676C761.451 217.945 761.701 218.155 762.023 218.307C762.348 218.458 762.731 218.534 763.17 218.534ZM763.17 213.233C763.527 213.233 763.841 213.161 764.114 213.017C764.39 212.873 764.608 212.672 764.767 212.415C764.926 212.157 765.008 211.86 765.011 211.523C765.008 211.189 764.928 210.898 764.773 210.648C764.617 210.394 764.402 210.199 764.125 210.062C763.848 209.922 763.53 209.852 763.17 209.852C762.803 209.852 762.479 209.922 762.199 210.062C761.922 210.199 761.706 210.394 761.551 210.648C761.4 210.898 761.326 211.189 761.33 211.523C761.326 211.86 761.402 212.157 761.557 212.415C761.716 212.669 761.934 212.869 762.21 213.017C762.491 213.161 762.811 213.233 763.17 213.233ZM773.408 220.159C772.65 220.159 771.972 220.017 771.374 219.733C770.775 219.445 770.3 219.051 769.947 218.551C769.599 218.051 769.413 217.479 769.391 216.835H771.436C771.474 217.312 771.68 217.703 772.055 218.006C772.43 218.305 772.881 218.455 773.408 218.455C773.821 218.455 774.188 218.36 774.51 218.17C774.832 217.981 775.086 217.718 775.271 217.381C775.457 217.044 775.548 216.659 775.544 216.227C775.548 215.788 775.455 215.398 775.266 215.057C775.076 214.716 774.817 214.449 774.487 214.256C774.158 214.059 773.779 213.96 773.351 213.96C773.002 213.956 772.66 214.021 772.322 214.153C771.985 214.286 771.718 214.46 771.521 214.676L769.618 214.364L770.226 208.364H776.976V210.125H771.97L771.635 213.21H771.703C771.919 212.956 772.224 212.746 772.618 212.58C773.012 212.409 773.444 212.324 773.913 212.324C774.618 212.324 775.247 212.491 775.8 212.824C776.353 213.153 776.788 213.608 777.107 214.188C777.425 214.767 777.584 215.43 777.584 216.176C777.584 216.945 777.406 217.631 777.05 218.233C776.697 218.831 776.207 219.303 775.578 219.648C774.953 219.989 774.23 220.159 773.408 220.159ZM783.533 220.159C782.775 220.159 782.097 220.017 781.499 219.733C780.9 219.445 780.425 219.051 780.072 218.551C779.724 218.051 779.538 217.479 779.516 216.835H781.561C781.599 217.312 781.805 217.703 782.18 218.006C782.555 218.305 783.006 218.455 783.533 218.455C783.946 218.455 784.313 218.36 784.635 218.17C784.957 217.981 785.211 217.718 785.396 217.381C785.582 217.044 785.673 216.659 785.669 216.227C785.673 215.788 785.58 215.398 785.391 215.057C785.201 214.716 784.942 214.449 784.612 214.256C784.283 214.059 783.904 213.96 783.476 213.96C783.127 213.956 782.785 214.021 782.447 214.153C782.11 214.286 781.843 214.46 781.646 214.676L779.743 214.364L780.351 208.364H787.101V210.125H782.095L781.76 213.21H781.828C782.044 212.956 782.349 212.746 782.743 212.58C783.137 212.409 783.569 212.324 784.038 212.324C784.743 212.324 785.372 212.491 785.925 212.824C786.478 213.153 786.913 213.608 787.232 214.188C787.55 214.767 787.709 215.43 787.709 216.176C787.709 216.945 787.531 217.631 787.175 218.233C786.822 218.831 786.332 219.303 785.703 219.648C785.078 219.989 784.355 220.159 783.533 220.159ZM793.749 220.159C792.904 220.159 792.154 220.017 791.499 219.733C790.847 219.449 790.336 219.061 789.964 218.568C789.597 218.072 789.415 217.509 789.419 216.881C789.415 216.392 789.521 215.943 789.737 215.534C789.953 215.125 790.245 214.784 790.612 214.511C790.983 214.235 791.396 214.059 791.851 213.983V213.903C791.252 213.771 790.768 213.466 790.396 212.989C790.029 212.508 789.847 211.953 789.851 211.324C789.847 210.725 790.014 210.191 790.351 209.722C790.688 209.252 791.15 208.883 791.737 208.614C792.324 208.341 792.995 208.205 793.749 208.205C794.495 208.205 795.16 208.341 795.743 208.614C796.33 208.883 796.792 209.252 797.129 209.722C797.47 210.191 797.641 210.725 797.641 211.324C797.641 211.953 797.453 212.508 797.078 212.989C796.707 213.466 796.228 213.771 795.641 213.903V213.983C796.095 214.059 796.504 214.235 796.868 214.511C797.235 214.784 797.527 215.125 797.743 215.534C797.963 215.943 798.072 216.392 798.072 216.881C798.072 217.509 797.887 218.072 797.516 218.568C797.144 219.061 796.633 219.449 795.982 219.733C795.334 220.017 794.589 220.159 793.749 220.159ZM793.749 218.534C794.184 218.534 794.563 218.46 794.885 218.312C795.207 218.161 795.457 217.949 795.635 217.676C795.813 217.403 795.904 217.089 795.908 216.733C795.904 216.362 795.807 216.034 795.618 215.75C795.432 215.462 795.177 215.237 794.851 215.074C794.529 214.911 794.161 214.83 793.749 214.83C793.332 214.83 792.961 214.911 792.635 215.074C792.309 215.237 792.052 215.462 791.862 215.75C791.677 216.034 791.586 216.362 791.589 216.733C791.586 217.089 791.673 217.403 791.851 217.676C792.029 217.945 792.279 218.155 792.601 218.307C792.927 218.458 793.309 218.534 793.749 218.534ZM793.749 213.233C794.105 213.233 794.419 213.161 794.692 213.017C794.968 212.873 795.186 212.672 795.345 212.415C795.504 212.157 795.586 211.86 795.589 211.523C795.586 211.189 795.506 210.898 795.351 210.648C795.196 210.394 794.98 210.199 794.703 210.062C794.427 209.922 794.108 209.852 793.749 209.852C793.381 209.852 793.057 209.922 792.777 210.062C792.5 210.199 792.285 210.394 792.129 210.648C791.978 210.898 791.904 211.189 791.908 211.523C791.904 211.86 791.98 212.157 792.135 212.415C792.294 212.669 792.512 212.869 792.788 213.017C793.069 213.161 793.389 213.233 793.749 213.233ZM811.818 212.08C811.723 211.773 811.593 211.498 811.426 211.256C811.263 211.009 811.066 210.799 810.835 210.625C810.608 210.451 810.347 210.32 810.051 210.233C809.756 210.142 809.434 210.097 809.085 210.097C808.46 210.097 807.903 210.254 807.415 210.568C806.926 210.883 806.542 211.345 806.261 211.955C805.985 212.561 805.847 213.299 805.847 214.17C805.847 215.049 805.985 215.794 806.261 216.403C806.538 217.013 806.922 217.477 807.415 217.795C807.907 218.11 808.479 218.267 809.131 218.267C809.722 218.267 810.233 218.153 810.665 217.926C811.1 217.699 811.436 217.377 811.67 216.96C811.905 216.54 812.023 216.047 812.023 215.483L812.5 215.557H809.341V213.909H814.062V215.307C814.062 216.303 813.85 217.165 813.426 217.892C813.002 218.619 812.419 219.18 811.676 219.574C810.934 219.964 810.081 220.159 809.119 220.159C808.047 220.159 807.106 219.919 806.295 219.438C805.489 218.953 804.858 218.265 804.403 217.375C803.953 216.481 803.727 215.42 803.727 214.193C803.727 213.254 803.86 212.415 804.125 211.676C804.394 210.938 804.769 210.311 805.25 209.795C805.731 209.277 806.295 208.883 806.943 208.614C807.591 208.341 808.295 208.205 809.057 208.205C809.701 208.205 810.301 208.299 810.858 208.489C811.415 208.674 811.909 208.939 812.341 209.284C812.777 209.629 813.134 210.038 813.415 210.511C813.695 210.985 813.879 211.508 813.966 212.08H811.818ZM816.01 220V211.273H818.004V212.727H818.095C818.254 212.223 818.527 211.835 818.913 211.562C819.304 211.286 819.749 211.148 820.249 211.148C820.362 211.148 820.489 211.153 820.629 211.165C820.773 211.172 820.893 211.186 820.987 211.205V213.097C820.9 213.066 820.762 213.04 820.572 213.017C820.387 212.991 820.207 212.977 820.033 212.977C819.658 212.977 819.321 213.059 819.021 213.222C818.726 213.381 818.493 213.602 818.322 213.886C818.152 214.17 818.067 214.498 818.067 214.869V220H816.01ZM825.858 220.17C824.983 220.17 824.227 219.989 823.591 219.625C822.958 219.258 822.472 218.739 822.131 218.068C821.79 217.394 821.619 216.6 821.619 215.688C821.619 214.79 821.79 214.002 822.131 213.324C822.475 212.642 822.956 212.112 823.574 211.733C824.191 211.35 824.917 211.159 825.75 211.159C826.288 211.159 826.795 211.246 827.273 211.42C827.754 211.591 828.178 211.856 828.545 212.216C828.917 212.576 829.208 213.034 829.42 213.591C829.633 214.144 829.739 214.803 829.739 215.568V216.199H822.585V214.812H827.767C827.763 214.419 827.678 214.068 827.511 213.761C827.345 213.451 827.112 213.206 826.812 213.028C826.517 212.85 826.172 212.761 825.778 212.761C825.358 212.761 824.989 212.864 824.67 213.068C824.352 213.269 824.104 213.534 823.926 213.864C823.752 214.189 823.663 214.547 823.659 214.938V216.148C823.659 216.655 823.752 217.091 823.938 217.455C824.123 217.814 824.383 218.091 824.716 218.284C825.049 218.473 825.439 218.568 825.886 218.568C826.186 218.568 826.456 218.527 826.699 218.443C826.941 218.356 827.152 218.229 827.33 218.062C827.508 217.896 827.642 217.689 827.733 217.443L829.653 217.659C829.532 218.167 829.301 218.61 828.96 218.989C828.623 219.364 828.191 219.655 827.665 219.864C827.138 220.068 826.536 220.17 825.858 220.17ZM835.342 220.17C834.467 220.17 833.712 219.989 833.075 219.625C832.443 219.258 831.956 218.739 831.615 218.068C831.274 217.394 831.104 216.6 831.104 215.688C831.104 214.79 831.274 214.002 831.615 213.324C831.96 212.642 832.441 212.112 833.058 211.733C833.676 211.35 834.401 211.159 835.234 211.159C835.772 211.159 836.28 211.246 836.757 211.42C837.238 211.591 837.662 211.856 838.03 212.216C838.401 212.576 838.693 213.034 838.905 213.591C839.117 214.144 839.223 214.803 839.223 215.568V216.199H832.07V214.812H837.251C837.248 214.419 837.162 214.068 836.996 213.761C836.829 213.451 836.596 213.206 836.297 213.028C836.001 212.85 835.657 212.761 835.263 212.761C834.842 212.761 834.473 212.864 834.155 213.068C833.837 213.269 833.589 213.534 833.411 213.864C833.236 214.189 833.147 214.547 833.143 214.938V216.148C833.143 216.655 833.236 217.091 833.422 217.455C833.607 217.814 833.867 218.091 834.2 218.284C834.534 218.473 834.924 218.568 835.371 218.568C835.67 218.568 835.941 218.527 836.183 218.443C836.426 218.356 836.636 218.229 836.814 218.062C836.992 217.896 837.126 217.689 837.217 217.443L839.138 217.659C839.017 218.167 838.786 218.61 838.445 218.989C838.107 219.364 837.676 219.655 837.149 219.864C836.623 220.068 836.02 220.17 835.342 220.17ZM843.02 214.886V220H840.963V211.273H842.929V212.756H843.031C843.232 212.267 843.552 211.879 843.991 211.591C844.435 211.303 844.982 211.159 845.634 211.159C846.236 211.159 846.76 211.288 847.207 211.545C847.658 211.803 848.007 212.176 848.253 212.665C848.503 213.153 848.626 213.746 848.622 214.443V220H846.565V214.761C846.565 214.178 846.414 213.722 846.111 213.392C845.812 213.062 845.397 212.898 844.866 212.898C844.507 212.898 844.187 212.977 843.906 213.136C843.63 213.292 843.412 213.517 843.253 213.812C843.098 214.108 843.02 214.466 843.02 214.886ZM854.773 220V208.364H859.136C860.03 208.364 860.78 208.519 861.386 208.83C861.996 209.14 862.456 209.576 862.767 210.136C863.081 210.693 863.239 211.343 863.239 212.085C863.239 212.831 863.08 213.479 862.761 214.028C862.447 214.574 861.983 214.996 861.369 215.295C860.756 215.591 860.002 215.739 859.108 215.739H856V213.989H858.824C859.347 213.989 859.775 213.917 860.108 213.773C860.441 213.625 860.688 213.411 860.847 213.131C861.009 212.847 861.091 212.498 861.091 212.085C861.091 211.672 861.009 211.32 860.847 211.028C860.684 210.733 860.436 210.509 860.102 210.358C859.769 210.203 859.339 210.125 858.812 210.125H856.881V220H854.773ZM860.784 214.727L863.665 220H861.312L858.483 214.727H860.784ZM868.202 220.153C867.516 220.153 866.902 219.977 866.361 219.625C865.819 219.273 865.391 218.761 865.077 218.091C864.762 217.42 864.605 216.606 864.605 215.648C864.605 214.678 864.764 213.86 865.082 213.193C865.404 212.523 865.838 212.017 866.384 211.676C866.929 211.331 867.537 211.159 868.207 211.159C868.719 211.159 869.139 211.246 869.469 211.42C869.798 211.591 870.06 211.797 870.253 212.04C870.446 212.278 870.596 212.504 870.702 212.716H870.787V208.364H872.849V220H870.827V218.625H870.702C870.596 218.837 870.442 219.062 870.241 219.301C870.041 219.536 869.776 219.737 869.446 219.903C869.116 220.07 868.702 220.153 868.202 220.153ZM868.776 218.466C869.211 218.466 869.582 218.348 869.889 218.114C870.196 217.875 870.429 217.544 870.588 217.119C870.747 216.695 870.827 216.201 870.827 215.636C870.827 215.072 870.747 214.581 870.588 214.165C870.433 213.748 870.202 213.424 869.895 213.193C869.592 212.962 869.219 212.847 868.776 212.847C868.317 212.847 867.935 212.966 867.628 213.205C867.321 213.443 867.09 213.773 866.935 214.193C866.779 214.614 866.702 215.095 866.702 215.636C866.702 216.182 866.779 216.669 866.935 217.097C867.094 217.521 867.327 217.856 867.634 218.102C867.944 218.345 868.325 218.466 868.776 218.466ZM876.308 220.125C875.964 220.125 875.668 220.004 875.422 219.761C875.176 219.519 875.054 219.223 875.058 218.875C875.054 218.534 875.176 218.242 875.422 218C875.668 217.758 875.964 217.636 876.308 217.636C876.642 217.636 876.931 217.758 877.178 218C877.428 218.242 877.554 218.534 877.558 218.875C877.554 219.106 877.494 219.316 877.376 219.506C877.263 219.695 877.111 219.847 876.922 219.96C876.736 220.07 876.532 220.125 876.308 220.125ZM882.097 218.409L882.023 219.034C881.97 219.511 881.875 219.996 881.739 220.489C881.606 220.985 881.466 221.441 881.318 221.858C881.17 222.275 881.051 222.602 880.96 222.841H879.574C879.627 222.61 879.699 222.295 879.79 221.898C879.884 221.5 879.975 221.053 880.062 220.557C880.15 220.061 880.208 219.557 880.239 219.045L880.278 218.409H882.097ZM892.07 220V208.364H894.178V218.233H899.303V220H892.07ZM903.064 220H900.814L904.911 208.364H907.513L911.615 220H909.365L906.257 210.75H906.166L903.064 220ZM903.138 215.438H909.274V217.131H903.138V215.438Z" fill="#E1D4C9"/>
<path d="M745.098 258.252L741.667 258.917C739.348 257.753 737.917 256.417 737.083 254.333L737.725 250.892L736.512 247.667L733.729 247.667C732.602 247.667 731.715 248.6 731.901 249.712C732.299 252.085 733.372 256.039 736.25 258.917C739.273 261.94 743.566 263.332 746.138 263.929C747.299 264.198 748.333 263.291 748.333 262.099L748.333 259.484L745.098 258.252Z" stroke="#E1D4C9" stroke-width="1.5" stroke-linecap="round" stroke-linejoin="round"/>
<path d="M762.489 262.136V254.273H764.273V262.136H762.489ZM759.449 259.097V257.312H767.312V259.097H759.449ZM774.533 252.364V264H772.425V254.415H772.357L769.635 256.153V254.222L772.527 252.364H774.533ZM781.99 258.182C781.99 256.761 782.178 255.456 782.553 254.267C782.931 253.074 783.494 251.972 784.24 250.96H786.178C785.89 251.335 785.621 251.795 785.371 252.341C785.121 252.883 784.903 253.477 784.717 254.125C784.536 254.769 784.392 255.437 784.286 256.131C784.183 256.824 784.132 257.508 784.132 258.182C784.132 259.08 784.221 259.989 784.399 260.909C784.581 261.83 784.825 262.684 785.132 263.472C785.443 264.256 785.791 264.898 786.178 265.398H784.24C783.494 264.386 782.931 263.286 782.553 262.097C782.178 260.903 781.99 259.598 781.99 258.182ZM792.014 264.159C791.457 264.155 790.914 264.059 790.384 263.869C789.853 263.676 789.376 263.364 788.952 262.932C788.527 262.496 788.19 261.919 787.94 261.199C787.69 260.475 787.567 259.58 787.571 258.511C787.571 257.515 787.677 256.627 787.889 255.847C788.101 255.066 788.406 254.407 788.804 253.869C789.202 253.328 789.681 252.915 790.241 252.631C790.806 252.347 791.437 252.205 792.134 252.205C792.865 252.205 793.512 252.348 794.077 252.636C794.645 252.924 795.103 253.318 795.452 253.818C795.8 254.314 796.016 254.875 796.099 255.5H794.026C793.92 255.053 793.702 254.697 793.372 254.432C793.046 254.163 792.634 254.028 792.134 254.028C791.327 254.028 790.705 254.379 790.27 255.08C789.838 255.78 789.62 256.742 789.616 257.966H789.696C789.882 257.633 790.122 257.347 790.418 257.108C790.713 256.869 791.046 256.686 791.418 256.557C791.793 256.424 792.188 256.358 792.605 256.358C793.287 256.358 793.899 256.521 794.44 256.847C794.986 257.172 795.418 257.621 795.736 258.193C796.054 258.761 796.211 259.413 796.207 260.148C796.211 260.913 796.037 261.6 795.685 262.21C795.332 262.816 794.842 263.294 794.213 263.642C793.584 263.991 792.851 264.163 792.014 264.159ZM792.003 262.455C792.416 262.455 792.785 262.354 793.111 262.153C793.437 261.953 793.694 261.682 793.884 261.341C794.073 261 794.166 260.617 794.162 260.193C794.166 259.777 794.075 259.4 793.889 259.062C793.707 258.725 793.455 258.458 793.134 258.261C792.812 258.064 792.444 257.966 792.031 257.966C791.724 257.966 791.438 258.025 791.173 258.142C790.908 258.259 790.677 258.422 790.48 258.631C790.283 258.835 790.128 259.074 790.014 259.347C789.904 259.616 789.848 259.903 789.844 260.21C789.848 260.616 789.942 260.989 790.128 261.33C790.313 261.67 790.569 261.943 790.895 262.148C791.221 262.352 791.59 262.455 792.003 262.455ZM802.429 264.222C801.493 264.222 800.69 263.985 800.02 263.511C799.353 263.034 798.84 262.347 798.48 261.449C798.124 260.547 797.946 259.462 797.946 258.193C797.95 256.924 798.13 255.845 798.486 254.955C798.846 254.061 799.359 253.379 800.026 252.909C800.696 252.439 801.497 252.205 802.429 252.205C803.361 252.205 804.162 252.439 804.832 252.909C805.503 253.379 806.016 254.061 806.372 254.955C806.732 255.848 806.912 256.928 806.912 258.193C806.912 259.466 806.732 260.553 806.372 261.455C806.016 262.352 805.503 263.038 804.832 263.511C804.166 263.985 803.365 264.222 802.429 264.222ZM802.429 262.443C803.156 262.443 803.73 262.085 804.151 261.369C804.575 260.65 804.787 259.591 804.787 258.193C804.787 257.269 804.69 256.492 804.497 255.864C804.304 255.235 804.031 254.761 803.679 254.443C803.327 254.121 802.91 253.96 802.429 253.96C801.705 253.96 801.134 254.32 800.713 255.04C800.293 255.756 800.08 256.807 800.077 258.193C800.073 259.121 800.166 259.902 800.355 260.534C800.548 261.167 800.821 261.644 801.173 261.966C801.526 262.284 801.944 262.443 802.429 262.443ZM812.976 264.159C812.158 264.159 811.43 264.019 810.794 263.739C810.161 263.458 809.661 263.068 809.294 262.568C808.927 262.068 808.732 261.491 808.709 260.835H810.845C810.864 261.15 810.968 261.424 811.158 261.659C811.347 261.89 811.599 262.07 811.913 262.199C812.228 262.328 812.58 262.392 812.97 262.392C813.387 262.392 813.756 262.32 814.078 262.176C814.4 262.028 814.652 261.824 814.834 261.562C815.016 261.301 815.105 261 815.101 260.659C815.105 260.307 815.014 259.996 814.828 259.727C814.643 259.458 814.374 259.248 814.021 259.097C813.673 258.945 813.252 258.869 812.76 258.869H811.732V257.244H812.76C813.165 257.244 813.519 257.174 813.822 257.034C814.129 256.894 814.37 256.697 814.544 256.443C814.718 256.186 814.804 255.888 814.8 255.551C814.804 255.222 814.73 254.936 814.578 254.693C814.43 254.447 814.22 254.256 813.947 254.119C813.679 253.983 813.362 253.915 812.999 253.915C812.643 253.915 812.313 253.979 812.01 254.108C811.707 254.237 811.463 254.42 811.277 254.659C811.091 254.894 810.993 255.174 810.982 255.5H808.953C808.968 254.848 809.156 254.277 809.516 253.784C809.879 253.288 810.364 252.902 810.97 252.625C811.576 252.345 812.256 252.205 813.01 252.205C813.786 252.205 814.461 252.35 815.033 252.642C815.608 252.93 816.054 253.318 816.368 253.807C816.682 254.295 816.839 254.835 816.839 255.426C816.843 256.081 816.65 256.631 816.26 257.074C815.874 257.517 815.366 257.807 814.737 257.943V258.034C815.555 258.148 816.182 258.451 816.618 258.943C817.057 259.432 817.275 260.04 817.271 260.767C817.271 261.419 817.086 262.002 816.714 262.517C816.347 263.028 815.839 263.43 815.192 263.722C814.548 264.013 813.809 264.159 812.976 264.159ZM822.915 258.182C822.915 259.598 822.725 260.903 822.347 262.097C821.972 263.286 821.411 264.386 820.665 265.398H818.727C819.019 265.023 819.288 264.564 819.534 264.023C819.784 263.481 820 262.886 820.182 262.239C820.367 261.591 820.511 260.92 820.614 260.227C820.72 259.534 820.773 258.852 820.773 258.182C820.773 257.284 820.682 256.375 820.5 255.455C820.322 254.534 820.078 253.68 819.767 252.892C819.46 252.104 819.114 251.46 818.727 250.96H820.665C821.411 251.972 821.972 253.074 822.347 254.267C822.725 255.456 822.915 256.761 822.915 258.182ZM833.533 264.159C832.775 264.159 832.097 264.017 831.499 263.733C830.9 263.445 830.425 263.051 830.072 262.551C829.724 262.051 829.538 261.479 829.516 260.835H831.561C831.599 261.312 831.805 261.703 832.18 262.006C832.555 262.305 833.006 262.455 833.533 262.455C833.946 262.455 834.313 262.36 834.635 262.17C834.957 261.981 835.211 261.718 835.396 261.381C835.582 261.044 835.673 260.659 835.669 260.227C835.673 259.788 835.58 259.398 835.391 259.057C835.201 258.716 834.942 258.449 834.612 258.256C834.283 258.059 833.904 257.96 833.476 257.96C833.127 257.956 832.785 258.021 832.447 258.153C832.11 258.286 831.843 258.46 831.646 258.676L829.743 258.364L830.351 252.364H837.101V254.125H832.095L831.76 257.21H831.828C832.044 256.956 832.349 256.746 832.743 256.58C833.137 256.409 833.569 256.324 834.038 256.324C834.743 256.324 835.372 256.491 835.925 256.824C836.478 257.153 836.913 257.608 837.232 258.188C837.55 258.767 837.709 259.43 837.709 260.176C837.709 260.945 837.531 261.631 837.175 262.233C836.822 262.831 836.332 263.303 835.703 263.648C835.078 263.989 834.355 264.159 833.533 264.159ZM843.658 264.159C842.9 264.159 842.222 264.017 841.624 263.733C841.025 263.445 840.55 263.051 840.197 262.551C839.849 262.051 839.663 261.479 839.641 260.835H841.686C841.724 261.312 841.93 261.703 842.305 262.006C842.68 262.305 843.131 262.455 843.658 262.455C844.071 262.455 844.438 262.36 844.76 262.17C845.082 261.981 845.336 261.718 845.521 261.381C845.707 261.044 845.798 260.659 845.794 260.227C845.798 259.788 845.705 259.398 845.516 259.057C845.326 258.716 845.067 258.449 844.737 258.256C844.408 258.059 844.029 257.96 843.601 257.96C843.252 257.956 842.91 258.021 842.572 258.153C842.235 258.286 841.968 258.46 841.771 258.676L839.868 258.364L840.476 252.364H847.226V254.125H842.22L841.885 257.21H841.953C842.169 256.956 842.474 256.746 842.868 256.58C843.262 256.409 843.694 256.324 844.163 256.324C844.868 256.324 845.497 256.491 846.05 256.824C846.603 257.153 847.038 257.608 847.357 258.188C847.675 258.767 847.834 259.43 847.834 260.176C847.834 260.945 847.656 261.631 847.3 262.233C846.947 262.831 846.457 263.303 845.828 263.648C845.203 263.989 844.48 264.159 843.658 264.159ZM853.783 264.159C853.025 264.159 852.347 264.017 851.749 263.733C851.15 263.445 850.675 263.051 850.322 262.551C849.974 262.051 849.788 261.479 849.766 260.835H851.811C851.849 261.312 852.055 261.703 852.43 262.006C852.805 262.305 853.256 262.455 853.783 262.455C854.196 262.455 854.563 262.36 854.885 262.17C855.207 261.981 855.461 261.718 855.646 261.381C855.832 261.044 855.923 260.659 855.919 260.227C855.923 259.788 855.83 259.398 855.641 259.057C855.451 258.716 855.192 258.449 854.862 258.256C854.533 258.059 854.154 257.96 853.726 257.96C853.377 257.956 853.035 258.021 852.697 258.153C852.36 258.286 852.093 258.46 851.896 258.676L849.993 258.364L850.601 252.364H857.351V254.125H852.345L852.01 257.21H852.078C852.294 256.956 852.599 256.746 852.993 256.58C853.387 256.409 853.819 256.324 854.288 256.324C854.993 256.324 855.622 256.491 856.175 256.824C856.728 257.153 857.163 257.608 857.482 258.188C857.8 258.767 857.959 259.43 857.959 260.176C857.959 260.945 857.781 261.631 857.425 262.233C857.072 262.831 856.582 263.303 855.953 263.648C855.328 263.989 854.605 264.159 853.783 264.159ZM865.175 257.335V259.028H859.936V257.335H865.175ZM871.616 264.222C870.681 264.222 869.878 263.985 869.207 263.511C868.541 263.034 868.027 262.347 867.668 261.449C867.312 260.547 867.134 259.462 867.134 258.193C867.137 256.924 867.317 255.845 867.673 254.955C868.033 254.061 868.546 253.379 869.213 252.909C869.884 252.439 870.685 252.205 871.616 252.205C872.548 252.205 873.349 252.439 874.02 252.909C874.69 253.379 875.204 254.061 875.56 254.955C875.92 255.848 876.099 256.928 876.099 258.193C876.099 259.466 875.92 260.553 875.56 261.455C875.204 262.352 874.69 263.038 874.02 263.511C873.353 263.985 872.552 264.222 871.616 264.222ZM871.616 262.443C872.344 262.443 872.918 262.085 873.338 261.369C873.762 260.65 873.974 259.591 873.974 258.193C873.974 257.269 873.878 256.492 873.685 255.864C873.491 255.235 873.219 254.761 872.866 254.443C872.514 254.121 872.098 253.96 871.616 253.96C870.893 253.96 870.321 254.32 869.901 255.04C869.48 255.756 869.268 256.807 869.264 258.193C869.26 259.121 869.353 259.902 869.543 260.534C869.736 261.167 870.009 261.644 870.361 261.966C870.713 262.284 871.132 262.443 871.616 262.443ZM882.72 252.364V264H880.612V254.415H880.544L877.822 256.153V254.222L880.714 252.364H882.72ZM885.675 264V262.477L889.714 258.517C890.101 258.127 890.423 257.78 890.68 257.477C890.938 257.174 891.131 256.881 891.26 256.597C891.389 256.312 891.453 256.009 891.453 255.688C891.453 255.32 891.37 255.006 891.203 254.744C891.036 254.479 890.807 254.275 890.516 254.131C890.224 253.987 889.893 253.915 889.521 253.915C889.139 253.915 888.804 253.994 888.516 254.153C888.228 254.309 888.004 254.53 887.845 254.818C887.69 255.106 887.612 255.449 887.612 255.847H885.607C885.607 255.108 885.775 254.466 886.112 253.92C886.449 253.375 886.913 252.953 887.504 252.653C888.099 252.354 888.781 252.205 889.55 252.205C890.33 252.205 891.016 252.35 891.607 252.642C892.197 252.934 892.656 253.333 892.982 253.841C893.311 254.348 893.476 254.928 893.476 255.58C893.476 256.015 893.393 256.443 893.226 256.864C893.059 257.284 892.766 257.75 892.345 258.261C891.929 258.773 891.343 259.392 890.589 260.119L888.584 262.159V262.239H893.652V264H885.675ZM899.788 264.159C898.97 264.159 898.243 264.019 897.607 263.739C896.974 263.458 896.474 263.068 896.107 262.568C895.739 262.068 895.544 261.491 895.521 260.835H897.658C897.677 261.15 897.781 261.424 897.97 261.659C898.16 261.89 898.411 262.07 898.726 262.199C899.04 262.328 899.393 262.392 899.783 262.392C900.199 262.392 900.569 262.32 900.891 262.176C901.213 262.028 901.464 261.824 901.646 261.562C901.828 261.301 901.917 261 901.913 260.659C901.917 260.307 901.826 259.996 901.641 259.727C901.455 259.458 901.186 259.248 900.834 259.097C900.485 258.945 900.065 258.869 899.572 258.869H898.544V257.244H899.572C899.978 257.244 900.332 257.174 900.635 257.034C900.942 256.894 901.182 256.697 901.357 256.443C901.531 256.186 901.616 255.888 901.612 255.551C901.616 255.222 901.542 254.936 901.391 254.693C901.243 254.447 901.033 254.256 900.76 254.119C900.491 253.983 900.175 253.915 899.811 253.915C899.455 253.915 899.125 253.979 898.822 254.108C898.519 254.237 898.275 254.42 898.089 254.659C897.904 254.894 897.805 255.174 897.794 255.5H895.766C895.781 254.848 895.968 254.277 896.328 253.784C896.692 253.288 897.177 252.902 897.783 252.625C898.389 252.345 899.069 252.205 899.822 252.205C900.599 252.205 901.273 252.35 901.845 252.642C902.421 252.93 902.866 253.318 903.18 253.807C903.495 254.295 903.652 254.835 903.652 255.426C903.656 256.081 903.463 256.631 903.072 257.074C902.686 257.517 902.179 257.807 901.55 257.943V258.034C902.368 258.148 902.995 258.451 903.43 258.943C903.87 259.432 904.088 260.04 904.084 260.767C904.084 261.419 903.898 262.002 903.527 262.517C903.16 263.028 902.652 263.43 902.004 263.722C901.36 264.013 900.622 264.159 899.788 264.159Z" fill="#E1D4C9"/>
<g clip-path="url(#clip0_216_1397)">
<path d="M740 295L740 300L745 300" stroke="#E1D4C9" stroke-width="1.5" stroke-linecap="round" stroke-linejoin="round"/>
<path d="M740 308.333C744.603 308.333 748.334 304.602 748.334 300C748.334 295.398 744.603 291.667 740 291.667C735.398 291.667 731.667 295.398 731.667 300C731.667 304.602 735.398 308.333 740 308.333Z" stroke="#E1D4C9" stroke-width="1.5" stroke-linecap="round" stroke-linejoin="round"/>
</g>
<path d="M759.148 296.364H761.727L765.182 304.795H765.318L768.773 296.364H771.352V308H769.33V300.006H769.222L766.006 307.966H764.494L761.278 299.989H761.17V308H759.148V296.364ZM777.364 308.17C776.511 308.17 775.773 307.983 775.148 307.608C774.523 307.233 774.038 306.708 773.693 306.034C773.352 305.36 773.182 304.572 773.182 303.67C773.182 302.769 773.352 301.979 773.693 301.301C774.038 300.623 774.523 300.097 775.148 299.722C775.773 299.347 776.511 299.159 777.364 299.159C778.216 299.159 778.955 299.347 779.58 299.722C780.205 300.097 780.688 300.623 781.028 301.301C781.373 301.979 781.545 302.769 781.545 303.67C781.545 304.572 781.373 305.36 781.028 306.034C780.688 306.708 780.205 307.233 779.58 307.608C778.955 307.983 778.216 308.17 777.364 308.17ZM777.375 306.523C777.837 306.523 778.223 306.396 778.534 306.142C778.845 305.884 779.076 305.54 779.227 305.108C779.383 304.676 779.46 304.195 779.46 303.665C779.46 303.131 779.383 302.648 779.227 302.216C779.076 301.78 778.845 301.434 778.534 301.176C778.223 300.919 777.837 300.79 777.375 300.79C776.902 300.79 776.508 300.919 776.193 301.176C775.883 301.434 775.65 301.78 775.494 302.216C775.343 302.648 775.267 303.131 775.267 303.665C775.267 304.195 775.343 304.676 775.494 305.108C775.65 305.54 775.883 305.884 776.193 306.142C776.508 306.396 776.902 306.523 777.375 306.523ZM785.348 302.886V308H783.291V299.273H785.257V300.756H785.359C785.56 300.267 785.88 299.879 786.32 299.591C786.763 299.303 787.31 299.159 787.962 299.159C788.564 299.159 789.089 299.288 789.536 299.545C789.986 299.803 790.335 300.176 790.581 300.665C790.831 301.153 790.954 301.746 790.95 302.443V308H788.893V302.761C788.893 302.178 788.742 301.722 788.439 301.392C788.14 301.062 787.725 300.898 787.195 300.898C786.835 300.898 786.515 300.977 786.234 301.136C785.958 301.292 785.74 301.517 785.581 301.812C785.426 302.108 785.348 302.466 785.348 302.886ZM798.331 302.307V304H793.092V302.307H798.331ZM806.909 299.562C806.856 299.066 806.633 298.68 806.239 298.403C805.848 298.127 805.341 297.989 804.716 297.989C804.277 297.989 803.9 298.055 803.585 298.188C803.271 298.32 803.03 298.5 802.864 298.727C802.697 298.955 802.612 299.214 802.608 299.506C802.608 299.748 802.663 299.958 802.773 300.136C802.886 300.314 803.04 300.466 803.233 300.591C803.426 300.712 803.64 300.814 803.875 300.898C804.11 300.981 804.347 301.051 804.585 301.108L805.676 301.381C806.116 301.483 806.538 301.621 806.943 301.795C807.352 301.97 807.718 302.189 808.04 302.455C808.366 302.72 808.623 303.04 808.812 303.415C809.002 303.79 809.097 304.229 809.097 304.733C809.097 305.415 808.922 306.015 808.574 306.534C808.225 307.049 807.722 307.453 807.062 307.744C806.407 308.032 805.614 308.176 804.682 308.176C803.777 308.176 802.991 308.036 802.324 307.756C801.661 307.475 801.142 307.066 800.767 306.528C800.396 305.991 800.195 305.335 800.165 304.562H802.239C802.269 304.968 802.394 305.305 802.614 305.574C802.833 305.843 803.119 306.044 803.472 306.176C803.828 306.309 804.225 306.375 804.665 306.375C805.123 306.375 805.525 306.307 805.869 306.17C806.218 306.03 806.491 305.837 806.688 305.591C806.884 305.341 806.985 305.049 806.989 304.716C806.985 304.413 806.896 304.163 806.722 303.966C806.547 303.765 806.303 303.598 805.989 303.466C805.678 303.33 805.314 303.208 804.898 303.102L803.574 302.761C802.616 302.515 801.858 302.142 801.301 301.642C800.748 301.138 800.472 300.47 800.472 299.636C800.472 298.951 800.657 298.35 801.028 297.835C801.403 297.32 801.913 296.92 802.557 296.636C803.201 296.348 803.93 296.205 804.744 296.205C805.57 296.205 806.294 296.348 806.915 296.636C807.54 296.92 808.03 297.316 808.386 297.824C808.742 298.328 808.926 298.907 808.938 299.562H806.909ZM813.396 308.176C812.843 308.176 812.345 308.078 811.902 307.881C811.463 307.68 811.114 307.384 810.857 306.994C810.603 306.604 810.476 306.123 810.476 305.551C810.476 305.059 810.567 304.652 810.749 304.33C810.93 304.008 811.179 303.75 811.493 303.557C811.807 303.364 812.161 303.218 812.555 303.119C812.953 303.017 813.364 302.943 813.788 302.898C814.3 302.845 814.714 302.797 815.033 302.756C815.351 302.71 815.582 302.642 815.726 302.551C815.874 302.456 815.947 302.311 815.947 302.114V302.08C815.947 301.652 815.821 301.32 815.567 301.085C815.313 300.85 814.947 300.733 814.47 300.733C813.966 300.733 813.567 300.843 813.271 301.062C812.98 301.282 812.783 301.542 812.68 301.841L810.76 301.568C810.911 301.038 811.161 300.595 811.51 300.239C811.858 299.879 812.285 299.61 812.788 299.432C813.292 299.25 813.849 299.159 814.459 299.159C814.879 299.159 815.298 299.208 815.714 299.307C816.131 299.405 816.512 299.568 816.857 299.795C817.201 300.019 817.478 300.324 817.686 300.71C817.898 301.097 818.004 301.58 818.004 302.159V308H816.027V306.801H815.959C815.834 307.044 815.658 307.271 815.43 307.483C815.207 307.691 814.925 307.86 814.584 307.989C814.247 308.114 813.851 308.176 813.396 308.176ZM813.93 306.665C814.343 306.665 814.701 306.583 815.004 306.42C815.307 306.254 815.54 306.034 815.703 305.761C815.87 305.489 815.953 305.191 815.953 304.869V303.841C815.889 303.894 815.779 303.943 815.624 303.989C815.472 304.034 815.302 304.074 815.112 304.108C814.923 304.142 814.735 304.172 814.55 304.199C814.364 304.225 814.203 304.248 814.067 304.267C813.76 304.309 813.485 304.377 813.243 304.472C813 304.566 812.809 304.699 812.669 304.869C812.529 305.036 812.459 305.252 812.459 305.517C812.459 305.896 812.597 306.182 812.874 306.375C813.15 306.568 813.502 306.665 813.93 306.665ZM824.43 299.273V300.864H819.413V299.273H824.43ZM820.652 297.182H822.709V305.375C822.709 305.652 822.75 305.864 822.834 306.011C822.921 306.155 823.035 306.254 823.175 306.307C823.315 306.36 823.47 306.386 823.641 306.386C823.769 306.386 823.887 306.377 823.993 306.358C824.103 306.339 824.186 306.322 824.243 306.307L824.589 307.915C824.48 307.953 824.322 307.994 824.118 308.04C823.917 308.085 823.671 308.112 823.379 308.119C822.864 308.134 822.4 308.057 821.987 307.886C821.574 307.712 821.247 307.443 821.004 307.08C820.766 306.716 820.648 306.261 820.652 305.716V297.182ZM827.418 308.125C827.073 308.125 826.777 308.004 826.531 307.761C826.285 307.519 826.164 307.223 826.168 306.875C826.164 306.534 826.285 306.242 826.531 306C826.777 305.758 827.073 305.636 827.418 305.636C827.751 305.636 828.041 305.758 828.287 306C828.537 306.242 828.664 306.534 828.668 306.875C828.664 307.106 828.603 307.316 828.486 307.506C828.372 307.695 828.221 307.847 828.031 307.96C827.846 308.07 827.641 308.125 827.418 308.125ZM827.418 301.898C827.073 301.898 826.777 301.777 826.531 301.534C826.285 301.288 826.164 300.992 826.168 300.648C826.164 300.307 826.285 300.015 826.531 299.773C826.777 299.527 827.073 299.403 827.418 299.403C827.751 299.403 828.041 299.527 828.287 299.773C828.537 300.015 828.664 300.307 828.668 300.648C828.664 300.875 828.603 301.083 828.486 301.273C828.372 301.462 828.221 301.614 828.031 301.727C827.846 301.841 827.641 301.898 827.418 301.898ZM838.777 296.205C839.334 296.208 839.875 296.307 840.402 296.5C840.932 296.689 841.41 297 841.834 297.432C842.258 297.86 842.595 298.434 842.845 299.153C843.095 299.873 843.22 300.763 843.22 301.824C843.224 302.824 843.118 303.718 842.902 304.506C842.69 305.29 842.385 305.953 841.987 306.494C841.589 307.036 841.11 307.449 840.55 307.733C839.989 308.017 839.358 308.159 838.658 308.159C837.923 308.159 837.271 308.015 836.703 307.727C836.139 307.439 835.682 307.045 835.334 306.545C834.985 306.045 834.771 305.473 834.692 304.83H836.766C836.872 305.292 837.088 305.659 837.413 305.932C837.743 306.201 838.158 306.335 838.658 306.335C839.464 306.335 840.086 305.985 840.521 305.284C840.957 304.583 841.175 303.61 841.175 302.364H841.095C840.91 302.697 840.669 302.985 840.374 303.227C840.078 303.466 839.743 303.65 839.368 303.778C838.997 303.907 838.603 303.972 838.186 303.972C837.504 303.972 836.891 303.809 836.345 303.483C835.804 303.157 835.374 302.71 835.055 302.142C834.741 301.574 834.582 300.924 834.578 300.193C834.578 299.436 834.752 298.756 835.101 298.153C835.453 297.547 835.944 297.07 836.572 296.722C837.201 296.369 837.936 296.197 838.777 296.205ZM838.783 297.909C838.374 297.909 838.004 298.009 837.675 298.21C837.349 298.407 837.091 298.676 836.902 299.017C836.716 299.354 836.624 299.731 836.624 300.148C836.627 300.561 836.72 300.936 836.902 301.273C837.088 301.61 837.339 301.877 837.658 302.074C837.98 302.271 838.347 302.369 838.76 302.369C839.067 302.369 839.353 302.311 839.618 302.193C839.883 302.076 840.114 301.913 840.311 301.705C840.512 301.492 840.667 301.252 840.777 300.983C840.891 300.714 840.946 300.43 840.942 300.131C840.942 299.733 840.847 299.366 840.658 299.028C840.472 298.691 840.216 298.42 839.891 298.216C839.569 298.011 839.199 297.909 838.783 297.909ZM846.402 306.602C846.057 306.602 845.762 306.481 845.516 306.239C845.269 305.992 845.148 305.697 845.152 305.352C845.148 305.011 845.269 304.72 845.516 304.477C845.762 304.235 846.057 304.114 846.402 304.114C846.735 304.114 847.025 304.235 847.271 304.477C847.521 304.72 847.648 305.011 847.652 305.352C847.648 305.583 847.588 305.794 847.47 305.983C847.357 306.172 847.205 306.324 847.016 306.438C846.83 306.547 846.625 306.602 846.402 306.602ZM846.402 300.835C846.057 300.835 845.762 300.714 845.516 300.472C845.269 300.225 845.148 299.93 845.152 299.585C845.148 299.244 845.269 298.953 845.516 298.71C845.762 298.464 846.057 298.341 846.402 298.341C846.735 298.341 847.025 298.464 847.271 298.71C847.521 298.953 847.648 299.244 847.652 299.585C847.648 299.812 847.588 300.021 847.47 300.21C847.357 300.4 847.205 300.551 847.016 300.665C846.83 300.778 846.625 300.835 846.402 300.835ZM854.054 308.222C853.118 308.222 852.315 307.985 851.645 307.511C850.978 307.034 850.465 306.347 850.105 305.449C849.749 304.547 849.571 303.462 849.571 302.193C849.575 300.924 849.755 299.845 850.111 298.955C850.471 298.061 850.984 297.379 851.651 296.909C852.321 296.439 853.122 296.205 854.054 296.205C854.986 296.205 855.787 296.439 856.457 296.909C857.128 297.379 857.641 298.061 857.997 298.955C858.357 299.848 858.537 300.928 858.537 302.193C858.537 303.466 858.357 304.553 857.997 305.455C857.641 306.352 857.128 307.038 856.457 307.511C855.791 307.985 854.99 308.222 854.054 308.222ZM854.054 306.443C854.781 306.443 855.355 306.085 855.776 305.369C856.2 304.65 856.412 303.591 856.412 302.193C856.412 301.269 856.315 300.492 856.122 299.864C855.929 299.235 855.656 298.761 855.304 298.443C854.952 298.121 854.535 297.96 854.054 297.96C853.33 297.96 852.759 298.32 852.338 299.04C851.918 299.756 851.705 300.807 851.702 302.193C851.698 303.121 851.791 303.902 851.98 304.534C852.173 305.167 852.446 305.644 852.798 305.966C853.151 306.284 853.569 306.443 854.054 306.443ZM864.726 308.222C863.79 308.222 862.987 307.985 862.317 307.511C861.65 307.034 861.137 306.347 860.777 305.449C860.421 304.547 860.243 303.462 860.243 302.193C860.247 300.924 860.427 299.845 860.783 298.955C861.143 298.061 861.656 297.379 862.322 296.909C862.993 296.439 863.794 296.205 864.726 296.205C865.658 296.205 866.459 296.439 867.129 296.909C867.8 297.379 868.313 298.061 868.669 298.955C869.029 299.848 869.209 300.928 869.209 302.193C869.209 303.466 869.029 304.553 868.669 305.455C868.313 306.352 867.8 307.038 867.129 307.511C866.463 307.985 865.661 308.222 864.726 308.222ZM864.726 306.443C865.453 306.443 866.027 306.085 866.447 305.369C866.872 304.65 867.084 303.591 867.084 302.193C867.084 301.269 866.987 300.492 866.794 299.864C866.601 299.235 866.328 298.761 865.976 298.443C865.624 298.121 865.207 297.96 864.726 297.96C864.002 297.96 863.43 298.32 863.01 299.04C862.589 299.756 862.377 300.807 862.374 302.193C862.37 303.121 862.463 303.902 862.652 304.534C862.845 305.167 863.118 305.644 863.47 305.966C863.822 306.284 864.241 306.443 864.726 306.443ZM876.673 308H874.423L878.52 296.364H881.122L885.224 308H882.974L879.866 298.75H879.776L876.673 308ZM876.747 303.438H882.884V305.131H876.747V303.438ZM886.757 296.364H889.337L892.791 304.795H892.928L896.382 296.364H898.962V308H896.939V300.006H896.831L893.615 307.966H892.104L888.888 299.989H888.78V308H886.757V296.364ZM912.078 301.335V303.028H904.078V301.335H912.078ZM917.081 308V306.477L921.121 302.517C921.507 302.127 921.829 301.78 922.087 301.477C922.344 301.174 922.537 300.881 922.666 300.597C922.795 300.312 922.859 300.009 922.859 299.688C922.859 299.32 922.776 299.006 922.609 298.744C922.443 298.479 922.214 298.275 921.922 298.131C921.63 297.987 921.299 297.915 920.928 297.915C920.545 297.915 920.21 297.994 919.922 298.153C919.634 298.309 919.411 298.53 919.251 298.818C919.096 299.106 919.018 299.449 919.018 299.847H917.013C917.013 299.108 917.181 298.466 917.518 297.92C917.856 297.375 918.32 296.953 918.911 296.653C919.505 296.354 920.187 296.205 920.956 296.205C921.736 296.205 922.422 296.35 923.013 296.642C923.604 296.934 924.062 297.333 924.388 297.841C924.717 298.348 924.882 298.928 924.882 299.58C924.882 300.015 924.799 300.443 924.632 300.864C924.465 301.284 924.172 301.75 923.751 302.261C923.335 302.773 922.75 303.392 921.996 304.119L919.99 306.159V306.239H925.058V308H917.081ZM931.195 308.159C930.376 308.159 929.649 308.019 929.013 307.739C928.38 307.458 927.88 307.068 927.513 306.568C927.145 306.068 926.95 305.491 926.928 304.835H929.064C929.083 305.15 929.187 305.424 929.376 305.659C929.566 305.89 929.818 306.07 930.132 306.199C930.446 306.328 930.799 306.392 931.189 306.392C931.606 306.392 931.975 306.32 932.297 306.176C932.619 306.028 932.871 305.824 933.053 305.562C933.234 305.301 933.323 305 933.32 304.659C933.323 304.307 933.232 303.996 933.047 303.727C932.861 303.458 932.592 303.248 932.24 303.097C931.892 302.945 931.471 302.869 930.979 302.869H929.95V301.244H930.979C931.384 301.244 931.738 301.174 932.041 301.034C932.348 300.894 932.589 300.697 932.763 300.443C932.937 300.186 933.022 299.888 933.018 299.551C933.022 299.222 932.948 298.936 932.797 298.693C932.649 298.447 932.439 298.256 932.166 298.119C931.897 297.983 931.581 297.915 931.217 297.915C930.861 297.915 930.532 297.979 930.229 298.108C929.926 298.237 929.681 298.42 929.496 298.659C929.31 298.894 929.212 299.174 929.2 299.5H927.172C927.187 298.848 927.375 298.277 927.734 297.784C928.098 297.288 928.583 296.902 929.189 296.625C929.795 296.345 930.475 296.205 931.229 296.205C932.005 296.205 932.679 296.35 933.251 296.642C933.827 296.93 934.272 297.318 934.587 297.807C934.901 298.295 935.058 298.835 935.058 299.426C935.062 300.081 934.869 300.631 934.479 301.074C934.092 301.517 933.585 301.807 932.956 301.943V302.034C933.774 302.148 934.401 302.451 934.837 302.943C935.276 303.432 935.494 304.04 935.49 304.767C935.49 305.419 935.304 306.002 934.933 306.517C934.566 307.028 934.058 307.43 933.411 307.722C932.767 308.013 932.028 308.159 931.195 308.159ZM938.73 306.602C938.385 306.602 938.09 306.481 937.844 306.239C937.598 305.992 937.476 305.697 937.48 305.352C937.476 305.011 937.598 304.72 937.844 304.477C938.09 304.235 938.385 304.114 938.73 304.114C939.063 304.114 939.353 304.235 939.599 304.477C939.849 304.72 939.976 305.011 939.98 305.352C939.976 305.583 939.916 305.794 939.798 305.983C939.685 306.172 939.533 306.324 939.344 306.438C939.158 306.547 938.954 306.602 938.73 306.602ZM938.73 300.835C938.385 300.835 938.09 300.714 937.844 300.472C937.598 300.225 937.476 299.93 937.48 299.585C937.476 299.244 937.598 298.953 937.844 298.71C938.09 298.464 938.385 298.341 938.73 298.341C939.063 298.341 939.353 298.464 939.599 298.71C939.849 298.953 939.976 299.244 939.98 299.585C939.976 299.812 939.916 300.021 939.798 300.21C939.685 300.4 939.533 300.551 939.344 300.665C939.158 300.778 938.954 300.835 938.73 300.835ZM946.382 308.222C945.446 308.222 944.643 307.985 943.973 307.511C943.306 307.034 942.793 306.347 942.433 305.449C942.077 304.547 941.899 303.462 941.899 302.193C941.903 300.924 942.083 299.845 942.439 298.955C942.799 298.061 943.312 297.379 943.979 296.909C944.649 296.439 945.45 296.205 946.382 296.205C947.314 296.205 948.115 296.439 948.786 296.909C949.456 297.379 949.969 298.061 950.325 298.955C950.685 299.848 950.865 300.928 950.865 302.193C950.865 303.466 950.685 304.553 950.325 305.455C949.969 306.352 949.456 307.038 948.786 307.511C948.119 307.985 947.318 308.222 946.382 308.222ZM946.382 306.443C947.109 306.443 947.683 306.085 948.104 305.369C948.528 304.65 948.74 303.591 948.74 302.193C948.74 301.269 948.643 300.492 948.45 299.864C948.257 299.235 947.984 298.761 947.632 298.443C947.28 298.121 946.863 297.96 946.382 297.96C945.659 297.96 945.087 298.32 944.666 299.04C944.246 299.756 944.034 300.807 944.03 302.193C944.026 303.121 944.119 303.902 944.308 304.534C944.501 305.167 944.774 305.644 945.126 305.966C945.479 306.284 945.897 306.443 946.382 306.443ZM957.054 308.222C956.118 308.222 955.315 307.985 954.645 307.511C953.978 307.034 953.465 306.347 953.105 305.449C952.749 304.547 952.571 303.462 952.571 302.193C952.575 300.924 952.755 299.845 953.111 298.955C953.471 298.061 953.984 297.379 954.651 296.909C955.321 296.439 956.122 296.205 957.054 296.205C957.986 296.205 958.787 296.439 959.457 296.909C960.128 297.379 960.641 298.061 960.997 298.955C961.357 299.848 961.537 300.928 961.537 302.193C961.537 303.466 961.357 304.553 960.997 305.455C960.641 306.352 960.128 307.038 959.457 307.511C958.791 307.985 957.99 308.222 957.054 308.222ZM957.054 306.443C957.781 306.443 958.355 306.085 958.776 305.369C959.2 304.65 959.412 303.591 959.412 302.193C959.412 301.269 959.315 300.492 959.122 299.864C958.929 299.235 958.656 298.761 958.304 298.443C957.952 298.121 957.535 297.96 957.054 297.96C956.33 297.96 955.759 298.32 955.338 299.04C954.918 299.756 954.705 300.807 954.702 302.193C954.698 303.121 954.791 303.902 954.98 304.534C955.173 305.167 955.446 305.644 955.798 305.966C956.151 306.284 956.569 306.443 957.054 306.443ZM967.507 308V296.364H971.871C972.765 296.364 973.515 296.53 974.121 296.864C974.731 297.197 975.191 297.655 975.501 298.239C975.816 298.818 975.973 299.477 975.973 300.216C975.973 300.962 975.816 301.625 975.501 302.205C975.187 302.784 974.723 303.241 974.109 303.574C973.496 303.903 972.74 304.068 971.842 304.068H968.95V302.335H971.558C972.081 302.335 972.509 302.244 972.842 302.062C973.176 301.881 973.422 301.631 973.581 301.312C973.744 300.994 973.825 300.629 973.825 300.216C973.825 299.803 973.744 299.439 973.581 299.125C973.422 298.811 973.174 298.566 972.837 298.392C972.503 298.214 972.073 298.125 971.547 298.125H969.615V308H967.507ZM977.804 296.364H980.384L983.838 304.795H983.974L987.429 296.364H990.009V308H987.986V300.006H987.878L984.662 307.966H983.151L979.935 299.989H979.827V308H977.804V296.364Z" fill="#E1D4C9"/>
<defs>
<clipPath id="clip0_216_1397">
<rect width="20" height="20" fill="white" transform="translate(730 290)"/>
</clipPath>
</defs>
</svg>
